<?xml version="1.0" encoding="UTF-8" standalone="no"?>
<svg
   xmlns:svg="http://www.w3.org/2000/svg"
   xmlns="http://www.w3.org/2000/svg"
   width="900.0"
   height="600.0"

>
    <g transform="scale(4.214817619978103, -4.214817619978103)   translate(114.48527696900065,-40.360818200731664)" stroke-width="0.4"  fill="none">
       <!-- hidden lines -->
       <g  stroke="rgb(170,170,170)" fill="none" stroke-dasharray="0.4,0.4" >

       </g>

       <!-- solid lines -->
       <g  stroke="rgb(40,40,40)" fill="none">
			<path d="M55.15432893255071,-26.221524873533856 L54.606321177131136,-26.4846738767969 " />
			<path d="M55.15432893255071,-22.09885715574613 L55.15432893255071,-26.221524873533856 " />
			<path d="M-103.23759005323595,3.658620013108804 L-103.34043186382546,3.6080090036800274 L-103.44065611824641,3.5562012975679655 L-103.53820244515556,3.5032281017975704 L-103.63301208629308,3.4491213254411757 L-103.7250279318763,3.3939135603976758 L-103.81419455500053,3.3376380617603827 L-103.90045824502616,3.280328727785397 L-103.98376703993193,3.2220200794725735 L-104.0640707576149,3.1627472397713543 L-104.14132102611829,3.1025459124240204 L-104.21547131276893,3.041452360459094 L-104.28647695220678,2.9795033843478436 L-104.35429517328974,2.9167362998370567 L-104.41888512485731,2.853188915471431 L-104.48020790033785,2.788899509819118 L-104.53822656118437,2.7239068084141467 L-104.59290615912509,2.658249960429611 L-104.64421375721479,2.5919685150956675 L-104.69211844967488,2.5251023978765637 L-104.7365913805099,2.457691886421027 L-104.7776057608893,2.389777586300516 L-104.81513688528392,2.3214004065499454 L-104.84916214634782,2.2526015350256063 L-104.87966104853604,2.183422413595154 L-104.9066152204503,2.1139047131745623 L-104.93000842590534,2.044090308627128 L-104.94982657370892,1.9740212535396262 L-104.96605772614984,1.9037397548907888 L-104.9786921061888,1.8332881476274072 L-104.98772210334769,1.7627088691633417 L-104.99314227829389,1.6920444338168095 L-104.99494936611666,1.6213374072013758 " />
			<path d="M-104.99494936611666,1.6213374072013496 L-104.99351041005488,1.558241182579938 L-104.98919423206772,1.495175222190158 L-104.98200290241867,1.4321697757473408 L-104.97193987044355,1.3692550639411818 L-104.95900996289595,1.3064612639403232 L-104.94321938163216,1.2438184949178166 L-104.9245757006364,1.1813568036043989 L-104.9030878623879,1.1191061498765182 L-104.87876617357175,1.0570963923860188 L-104.85162230013509,0.9953572742383774 L-104.82166926169167,0.9339184087263628 L-104.78892142527691,0.8728092651259612 L-104.7533944984567,0.8120591545613769 L-104.7151055217933,0.7516972159458939 L-104.67407286067171,0.6917524020053357 L-104.63031619649077,0.6322534653908333 L-104.58385651722284,0.5732289448875567 L-104.534716107347,0.5147071517260302 L-104.48291853716009,0.4567161560025921 L-104.42848865147133,0.39928377321551745 L-104.37145255768539,0.3424375509232578 L-104.31183761327988,0.2862047555311986 L-104.24967241268335,0.23061235921327317 L-104.18498677355987,0.17568702697470528 L-104.11781172250696,0.1214551038620848 L-104.04817948017359,0.06794260232691296 L-103.97612344580548,0.01517518974867893 L-103.90167818122512,-0.036821823876553195 L-103.74576392158575,-0.13840527386357349 L-103.58073580374358,-0.23661287217686855 " />
			<path d="M-55.15432893255071,26.747822880059946 L-103.23759005323595,3.658620013108802 " />
			<path d="M-53.38656197958434,25.89895512759851 L-55.15432893255071,26.747822880059946 " />
			<path d="M-53.38656197958434,25.898955127598505 L-53.93456973500392,25.63580612433546 " />
			<path d="M-103.58055993636447,1.796193074530187 L-103.9446968344225,1.6213374072013451 " />
			<path d="M-103.58073580374358,1.4465661900012918 L-103.94469683442247,1.6213374072013451 " />
			<path d="M53.38656197958434,-25.372657121072415 L52.10787721693867,-25.986671462019522 " />
			<path d="M55.15432893255071,-26.221524873533856 L53.38656197958434,-25.372657121072418 " />
			<path d="M-53.38656197958434,26.60068580296663 L-53.38656197958434,25.89895512759851 " />
			<path d="M-51.84506919659766,25.86047312282026 L-53.38656197958433,26.60068580296663 " />
			<path d="M-51.84506919659766,25.86047312282025 L-51.84506919659766,27.013942920456596 " />
			<path d="M51.84506919659766,-22.777243967921553 L-51.84506919659768,27.013942920456604 " />
			<path d="M51.84506919659766,-23.930713765557915 L51.84506919659766,-22.777243967921553 " />
			<path d="M53.38656197958434,-24.67092644570429 L51.84506919659766,-23.93071376555791 " />
			<path d="M53.38656197958434,-24.67092644570429 L53.38656197958434,-25.37265712107241 " />
			<path d="M55.15432893255071,-22.09885715574613 L-55.15432893255071,30.87049059784767 " />
			<path d="M-55.15432893255071,30.87049059784767 L-55.15432893255071,26.747822880059946 " />
			<path d="M-55.15432893255071,30.87049059784767 L-103.23759005323595,7.781287730896526 " />
			<path d="M-103.23759005323595,7.781287730896527 L-103.34043186382546,7.73067672146775 L-103.44065611824641,7.678869015355689 L-103.53820244515556,7.625895819585294 L-103.63301208629308,7.571789043228899 L-103.7250279318763,7.516581278185399 L-103.81419455500053,7.460305779548106 L-103.90045824502616,7.4029964455731205 L-103.98376703993193,7.344687797260297 L-104.0640707576149,7.285414957559078 L-104.14132102611829,7.225213630211744 L-104.21547131276893,7.1641200782468175 L-104.28647695220678,7.102171102135567 L-104.35429517328974,7.03940401762478 L-104.41888512485731,6.975856633259154 L-104.48020790033785,6.911567227606842 L-104.53822656118437,6.84657452620187 L-104.59290615912509,6.780917678217334 L-104.64421375721479,6.714636232883391 L-104.69211844967488,6.647770115664287 L-104.7365913805099,6.58035960420875 L-104.7776057608893,6.5124453040882395 L-104.81513688528392,6.444068124337669 L-104.84916214634782,6.37526925281333 L-104.87966104853604,6.306090131382877 L-104.9066152204503,6.236572430962286 L-104.93000842590534,6.166758026414851 L-104.94982657370892,6.0966889713273495 L-104.96605772614984,6.026407472678512 L-104.9786921061888,5.955955865415131 L-104.98772210334769,5.885376586951065 L-104.99314227829389,5.814712151604533 L-104.99494936611666,5.7440051249890995 " />
			<path d="M53.38656197958434,-24.67092644570429 L50.176149879084676,-26.212541023153634 " />
			<path d="M-53.36530355353083,25.13046857124797 L-51.84506919659766,25.860473122820252 " />
			<path d="M-52.98206301769342,24.94643948768435 L-53.36530355353085,25.13046857124796 " />
			<path d="M51.632937162241696,-24.032577895853287 L51.84506919659766,-23.93071376555791 " />
			<path d="M51.84506919659766,-22.777243967921553 L51.782307293359516,-22.80881294544386 L51.71963019694063,-22.843201678382318 L51.657122599565305,-22.880363699072486 L51.59486896442284,-22.920248792453805 " />
			<path d="M55.15432893255071,-30.87049059784767 L8.485281374238568,-53.28059926282967 " />
			<path d="M55.15432893255071,-26.747822880059946 L55.15432893255071,-30.87049059784767 " />
			<path d="M8.485281374238577,-53.28059926282966 L8.379883955541693,-53.32998308939554 L8.271994416201402,-53.37810998612798 L8.161677744841953,-53.424950963183974 L8.049000392101163,-53.47047780531044 L7.934030230603053,-53.51466308884003 L7.816836514073891,-53.55748019821015 L7.697489835626364,-53.59890334199515 L7.576062085236905,-53.638907568442114 L7.327257152278621,-53.71456375033924 L7.071021108075278,-53.78426648153265 L6.807971247700984,-53.84784784203765 L6.5387412813098305,-53.905154658787716 L6.263979807472611,-53.95604887464182 L5.984348750646065,-54.000407880976155 L5.700521766538875,-54.03812481305908 L5.413182619216061,-54.06910880749758 L5.123023533851462,-54.09328522113519 L4.830743529096655,-54.11059581087384 L4.5370467330838,-54.120998873986636 L4.242640687119291,-54.124469348583325 L3.948234641154783,-54.120998873986636 L3.654537845141927,-54.110595810873846 L3.3622578403871213,-54.09328522113519 L3.072098755022522,-54.06910880749758 L2.7847596076997077,-54.03812481305908 L2.500932623592518,-54.000407880976155 L2.2213015667659715,-53.95604887464182 L1.9465400929287524,-53.905154658787716 L1.6773101265375971,-53.847847842037645 L1.4142602661633048,-53.78426648153265 L1.1580242219599617,-53.71456375033924 L0.9092192890016793,-53.638907568442114 L0.7877915386122218,-53.59890334199515 L0.6684448601646933,-53.55748019821015 L0.5512511436355325,-53.51466308884003 L0.4362809821374194,-53.47047780531044 L0.3236036293966298,-53.424950963183974 L0.21328695803718034,-53.37810998612798 L0.10539741869688957,-53.32998308939554 L2.5757174171303632e-14,-53.28059926282967 " />
			<path d="M55.15432893255071,-30.87049059784767 L-55.15432893255071,22.09885715574613 " />
			<path d="M-1.7763568394002505e-15,-53.28059926282966 L-101.82337649086284,-4.385816721050773 " />
			<path d="M-55.15432893255071,22.09885715574613 L-101.82337649086286,-0.31125150923586276 " />
			<path d="M-101.82337649086284,-0.3112515092358583 L-101.92621830145237,-0.3618625186646347 L-102.02644255587332,-0.41367022477669635 L-102.12398888278247,-0.46664342054709174 L-102.21879852391999,-0.5207501969034865 L-102.3108143695032,-0.5759579619469863 L-102.39998099262743,-0.6322334605842796 L-102.48624468265307,-0.6895427945592647 L-102.56955347755884,-0.7478514428720886 L-102.64985719524181,-0.807124282573308 L-102.7271074637452,-0.8673256099206417 L-102.80125775039583,-0.9284191618855682 L-102.87226338983369,-0.9903681379968188 L-102.94008161091665,-1.0531352225076052 L-103.00467156248422,-1.1166826068732312 L-103.06599433796475,-1.1809720125255443 L-103.12401299881128,-1.2459647139305152 L-103.178692596752,-1.3116215619150513 L-103.2300001948417,-1.3779030072489946 L-103.27790488730179,-1.4447691244680985 L-103.32237781813681,-1.5121796359236352 L-103.36339219851621,-1.580093936044146 L-103.40092332291083,-1.6484711157947167 L-103.43494858397473,-1.717269987319056 L-103.46544748616294,-1.7864491087495082 L-103.49240165807721,-1.8559668091700996 L-103.51579486353225,-1.925781213717534 L-103.53561301133583,-1.995850268805036 L-103.55184416377675,-2.0661317674538733 L-103.56447854381571,-2.136583374717255 L-103.5735085409746,-2.2071626531813204 L-103.5789287159208,-2.2778270885278524 L-103.58073580374356,-2.3485341151432864 " />
			<path d="M-103.58073580374356,-2.3485341151433126 L-103.5789287159208,-2.419241141758772 L-103.5735085409746,-2.4899055771053042 L-103.56447854381571,-2.56048485556937 L-103.55184416377675,-2.630936462832752 L-103.53561301133583,-2.7012179614815897 L-103.51579486353225,-2.7712870165690915 L-103.49240165807721,-2.841101421116524 L-103.46544748616294,-2.9106191215371156 L-103.43494858397473,-2.979798242967568 L-103.40092332291083,-3.048597114491905 L-103.36339219851621,-3.116974294242476 L-103.32237781813681,-3.184888594362987 L-103.27790488730179,-3.2522991058185244 L-103.2300001948417,-3.3191652230376283 L-103.178692596752,-3.3854466683715714 L-103.12401299881128,-3.451103516356108 L-103.06599433796475,-3.5160962177610795 L-103.00467156248422,-3.5803856234133926 L-102.94008161091665,-3.643933007779019 L-102.87226338983369,-3.7067000922898057 L-102.80125775039583,-3.7686490684010563 L-102.7271074637452,-3.829742620365983 L-102.64985719524181,-3.8899439477133164 L-102.56955347755884,-3.9492167874145365 L-102.48624468265307,-4.007525435727361 L-102.39998099262743,-4.064834769702346 L-102.3108143695032,-4.121110268339639 L-102.21879852391999,-4.176318033383139 L-102.12398888278247,-4.230424809739534 L-102.02644255587332,-4.28339800550993 L-101.92621830145237,-4.33520571162199 L-101.82337649086286,-4.385816721050764 " />
			<path d="M-33.77141986946952,7.756387610157656 L-55.15432893255071,-2.5115167236159106 " />
			<path d="M-33.77141986946952,7.756387610157656 L-55.15432893255071,18.024291943931225 " />
			<path d="M-55.15432893255071,18.024291943931225 L-76.53723799563191,7.756387610157658 " />
			<path d="M-55.15432893255071,-2.5115167236159106 L-76.53723799563191,7.756387610157656 " />
			<path d="M55.15432893255071,-26.747822880059946 L53.38656197958434,-25.89895512759851 " />
			<path d="M53.38656197958434,-25.898955127598505 L53.38656197958434,-26.600685802966627 " />
			<path d="M53.38656197958434,-26.60068580296663 L51.84506919659766,-25.860473122820252 " />
			<path d="M51.84506919659766,-27.013942920456596 L51.84506919659766,-25.86047312282025 " />
			<path d="M51.84506919659766,-27.013942920456596 L-51.84506919659768,22.77724396792156 " />
			<path d="M-51.84506919659766,22.777243967921553 L-51.84506919659766,23.930713765557915 " />
			<path d="M-51.84506919659766,23.93071376555792 L-53.38656197958433,24.67092644570429 " />
			<path d="M-53.38656197958434,25.372657121072415 L-53.38656197958434,24.670926445704293 " />
			<path d="M-53.38656197958434,25.372657121072418 L-55.15432893255071,26.221524873533856 " />
			<path d="M-55.15432893255071,26.221524873533856 L-55.15432893255071,22.09885715574613 " />
			<path d="M-101.82337649086284,3.811416208551865 L-101.92621830145237,3.7608051991230886 L-102.02644255587332,3.7089974930110268 L-102.12398888278247,3.6560242972406316 L-102.21879852391999,3.601917520884237 L-102.3108143695032,3.546709755840737 L-102.39998099262743,3.490434257203444 L-102.48624468265307,3.4331249232284584 L-102.56955347755884,3.3748162749156347 L-102.64985719524181,3.3155434352144155 L-102.7271074637452,3.2553421078670817 L-102.80125775039583,3.1942485559021554 L-102.87226338983369,3.132299579790905 L-102.94008161091665,3.069532495280118 L-103.00467156248422,3.005985110914492 L-103.06599433796475,2.941695705262179 L-103.12401299881128,2.876703003857208 L-103.178692596752,2.8110461558726723 L-103.2300001948417,2.7447647105387287 L-103.27790488730179,2.677898593319625 L-103.32237781813681,2.610488081864088 L-103.36339219851621,2.5425737817435774 L-103.40092332291083,2.4741966019930066 L-103.43494858397473,2.4053977304686676 L-103.46544748616294,2.336218609038215 L-103.49240165807721,2.2667009086176235 L-103.51579486353225,2.1968865040701893 L-103.53561301133583,2.1268174489826874 L-103.55184416377675,2.05653595033385 L-103.56447854381571,1.9860843430704684 L-103.5735085409746,1.915505064606403 L-103.5789287159208,1.8448406292598707 L-103.58073580374356,1.774133602644437 " />
			<path d="M-55.15432893255071,26.221524873533856 L-101.82337649086286,3.8114162085518615 " />
			<path d="M53.38656197958434,-25.898955127598505 L52.655884972358244,-26.249820465282568 " />
			<path d="M-55.15432893255071,-1.9852187170898183 L-55.15432893255071,-2.5115167236159106 " />
			<path d="M-34.319427624889094,8.019536613420701 L-55.15432893255071,-1.9852187170898183 " />
			<path d="M-55.15432893255071,-1.9852187170898183 L-75.98923024021234,8.019536613420703 " />
			<path d="M50.64401886596977,-26.437208021638426 L51.84506919659766,-25.860473122820252 " />
			<path d="M-51.5192343918269,6.537141879942243 L-51.65228327762176,6.470037137519886 L-51.77831490788594,6.399878339782413 L-51.89702566138306,6.3268345054187565 L-52.008129553510116,6.251081603423785 L-52.11135892525942,6.172802129173572 L-52.2064650880326,6.0921846647780615 L-52.293218922753226,6.009423424770236 L-52.371411431834716,5.924717788226303 L-52.440854242673836,5.838271818444036 L-52.47224139717369,5.794461138442079 L-52.50138006145681,5.750293771336411 L-52.52825268348138,5.705796321897452 L-52.552843076184736,5.660995593724879 L-52.57513642723381,5.615918573102132 L-52.59511930794753,5.570592412740899 L-52.61277968138575,5.525044415425327 L-52.62810690959989,5.479302017565849 L-52.641091760040794,5.4333927726725175 L-52.65172641112009,5.387344334757799 L-52.66000445692161,5.341184441678831 L-52.66592091106012,5.294940898429176 L-52.66947220968487,5.248641560390128 L-52.670656213626344,5.202314316551695 " />
			<path d="M-52.670656213626344,5.2023143165516785 L-52.66947220968487,5.155987072713229 L-52.66592091106012,5.109687734674181 L-52.66000445692161,5.063444191424526 L-52.65172641112009,5.017284298345557 L-52.641091760040794,4.9712358604308395 L-52.62810690959989,4.925326615537508 L-52.61277968138575,4.879584217678031 L-52.59511930794753,4.834036220362458 L-52.57513642723381,4.788710060001226 L-52.552843076184736,4.743633039378481 L-52.528252683481384,4.698832311205907 L-52.50138006145681,4.654334861766948 L-52.47224139717369,4.61016749466128 L-52.440854242673836,4.566356814659323 L-52.371411431834716,4.479910844877055 L-52.293218922753226,4.395205208333122 L-52.2064650880326,4.312443968325296 L-52.11135892525942,4.231826503929785 L-52.008129553510116,4.153547029679572 L-51.89702566138306,4.0777941276846 L-51.77831490788594,4.004750293320944 L-51.65228327762176,3.9345914955834704 L-51.519234391826906,3.8674867531611143 L-51.379488776920944,3.8035977272560526 L-51.23338309233047,3.7430783321277072 L-51.081269319447,3.686074364299816 L-50.923513913673006,3.6327231513238347 L-50.760496921598744,3.583153220944836 L-50.592611065436714,3.537483991466916 L-50.42026079691947,3.4958254840640395 L-50.24386132293999,3.458278057729394 L-50.06383760528184,3.424932167501786 L-49.88062333684909,3.3958681465515292 L-49.694659896862056,3.3711560126507996 L-49.50639528753615,3.3508552994946923 L-49.31628305480527,3.3350149132793314 L-49.12478119568992,3.323673014882565 L-48.932351054942295,3.316856927931063 L-48.73945621362635,3.314583072975311 L-48.5465613723104,3.316856927931063 L-48.35413123156278,3.323673014882565 L-48.16262937244743,3.3350149132793314 L-47.972517139716544,3.3508552994946923 L-47.78425253039064,3.3711560126507996 L-47.598289090403604,3.3958681465515292 L-47.415074821970855,3.424932167501786 L-47.23505110431271,3.458278057729394 L-47.05865163033322,3.4958254840640395 L-46.88630136181599,3.5374839914669156 L-46.71841550565396,3.5831532209448356 L-46.55539851357969,3.6327231513238343 L-46.39764310780569,3.6860743642998157 L-46.245529334922225,3.7430783321277072 L-46.09942365033175,3.8035977272560526 L-45.95967803542579,3.8674867531611143 L-45.82662914963093,3.9345914955834704 L-45.70059751936675,4.004750293320944 L-45.58188676586963,4.077794127684601 L-45.47078287374258,4.153547029679573 L-45.36755350199328,4.231826503929785 L-45.27244733922009,4.3124439683252955 L-45.18569350449947,4.395205208333121 L-45.10750099541798,4.479910844877055 L-45.03805818457886,4.566356814659323 L-45.006671030079005,4.61016749466128 L-44.97753236579589,4.654334861766948 L-44.95065974377131,4.698832311205907 L-44.92606935106796,4.74363303937848 L-44.90377600001889,4.788710060001226 L-44.88379311930517,4.834036220362458 L-44.86613274586694,4.87958421767803 L-44.8508055176528,4.925326615537507 L-44.8378206672119,4.971235860430838 L-44.82718601613261,5.017284298345557 L-44.81890797033108,5.063444191424526 L-44.812991516192575,5.109687734674182 L-44.809440217567825,5.15598707271323 L-44.80825621362635,5.20231431655167 " />
			<path d="M-44.80825621362635,5.2023143165516785 L-44.81092005533263,5.271796461287362 L-44.81890797033108,5.3411844416788306 L-44.832209133153086,5.410384220996292 L-44.8508055176528,5.479302017565849 L-44.87467192143675,5.5478444318653155 L-44.90377600001889,5.615918573102131 L-44.938078310654824,5.68343218510182 L-44.97753236579589,5.750293771336409 L-45.022084696090445,5.816412718923338 L-45.07167492284722,5.881699421426833 L-45.12623583986239,5.946065400295311 L-45.18569350449947,6.009423424770234 L-45.249967337898646,6.071687630103933 L-45.31897023417978,6.132773633926152 L-45.39260867849093,6.192598650601637 L-45.47078287374258,6.251081603423784 L-45.55338687585574,6.3081432344922925 L-45.64030873734063,6.363706212125911 L-45.73143065901134,6.4176952356647154 L-45.82662914963093,6.470037137519886 L-45.925775193270596,6.520660982332678 L-46.02873442415599,6.569498163108207 L-46.13536730876386,6.6164824941937646 L-46.245529334922225,6.661550300975649 L-46.35907120765766,6.704640506172972 L-46.47583905152451,6.745694712611469 L-46.5956746191416,6.784657282365147 L-46.71841550565395,6.821475412158521 L-46.8438953688289,6.856099204927239 L-46.971944154488156,6.88848173744012 L-47.10238832697051,6.918579123890968 L-47.2350511043127,6.9463505753739625 L-47.36975269782977,6.971758455162047 L-47.50631055577022,6.994768329713377 L-47.644539610715825,7.015349015336721 L-47.78425253039063,7.033472620452557 L-47.9252599715395,7.049114583392603 L-48.06737083653185,7.062253705686546 L-48.210392532343135,7.072872180790862 L-48.354131231562775,7.080955618220792 L-48.4983921350751,7.0864930630527745 L-48.64297973605707,7.0894770107708895 L-48.787698084935165,7.089903417437215 L-48.932351054942295,7.087771705172294 L-49.07674260791481,7.083084762938293 L-49.2206770599695,7.0758489426237965 L-49.36395934670042,7.066074050435525 L-49.50639528753615,7.053773333608666 L-49.64779184889932,7.038963462453813 L-49.78795740581167,7.021664507764843 L-49.926702001590094,7.001899913618363 L-50.06383760528184,6.979696465601571 L-50.19917836648981,6.955084254511601 L-50.33254086724276,6.928096635575552 L-50.463744370569,6.898770183246454 L-50.59261106543671,6.8671446416364414 L-50.71896630772889,6.833262870654307 L-50.842638856926506,6.797170787920436 L-50.96346110817888,6.758917306537825 L-51.081269319447,6.718554268803541 L-51.1959038334117,6.6761363759504455 L-51.307209293846235,6.6317211140143915 L-51.415034856159835,6.58536867592738 L-51.51923439182688,6.537141879942254 " />
			<path d="M-57.934107110751256,9.617513180074312 L-58.06715599654612,9.550408437651953 L-58.1931876268103,9.480249639914481 L-58.31189838030742,9.407205805550825 L-58.42300227243447,9.331452903555853 L-58.526231644183774,9.25317342930564 L-58.62133780695696,9.17255596491013 L-58.70809164167758,9.089794724902305 L-58.78628415075907,9.005089088358371 L-58.855726961598194,8.918643118576103 L-58.88711411609805,8.874832438574147 L-58.916252780381164,8.830665071468479 L-58.943125402405734,8.78616762202952 L-58.96771579510909,8.741366893856947 L-58.990009146158165,8.6962898732342 L-59.009992026871885,8.650963712872967 L-59.02765240031011,8.605415715557395 L-59.04297962852425,8.559673317697916 L-59.05596447896515,8.513764072804586 L-59.066599130044445,8.467715634889867 L-59.07487717584597,8.4215557418109 L-59.08079362998448,8.375312198561243 L-59.08434492860923,8.329012860522196 L-59.0855289325507,8.282685616683764 " />
			<path d="M-59.0855289325507,8.282685616683747 L-59.08434492860923,8.236358372845297 L-59.08079362998448,8.19005903480625 L-59.07487717584597,8.143815491556593 L-59.066599130044445,8.097655598477626 L-59.05596447896515,8.051607160562908 L-59.04297962852425,8.005697915669575 L-59.02765240031011,7.959955517810099 L-59.009992026871885,7.914407520494526 L-58.990009146158165,7.869081360133294 L-58.96771579510909,7.824004339510549 L-58.94312540240574,7.779203611337975 L-58.916252780381164,7.734706161899016 L-58.88711411609805,7.690538794793348 L-58.855726961598194,7.646728114791391 L-58.78628415075907,7.560282145009123 L-58.70809164167758,7.47557650846519 L-58.62133780695696,7.3928152684573645 L-58.526231644183774,7.312197804061853 L-58.42300227243447,7.23391832981164 L-58.31189838030742,7.158165427816668 L-58.1931876268103,7.085121593453012 L-58.06715599654612,7.0149627957155385 L-57.93410711075126,6.947858053293182 L-57.7943614958453,6.883969027388121 L-57.64825581125483,6.823449632259775 L-57.49614203837136,6.766445664431885 L-57.33838663259736,6.713094451455903 L-57.1753696405231,6.663524521076904 L-57.00748378436107,6.617855291598984 L-56.83513351584383,6.5761967841961075 L-56.65873404186435,6.538649357861463 L-56.4787103242062,6.505303467633854 L-56.29549605577345,6.476239446683597 L-56.109532615786414,6.451527312782868 L-55.92126800646051,6.43122659962676 L-55.731155773729625,6.4153862134113995 L-55.53965391461428,6.404044315014633 L-55.34722377386665,6.397228228063131 L-55.154328932550705,6.394954373107379 L-54.96143409123476,6.397228228063131 L-54.76900395048714,6.404044315014633 L-54.577502091371784,6.4153862134113995 L-54.3873898586409,6.43122659962676 L-54.199125249314996,6.451527312782868 L-54.01316180932796,6.476239446683597 L-53.82994754089521,6.505303467633854 L-53.64992382323707,6.538649357861463 L-53.47352434925758,6.5761967841961075 L-53.301174080740346,6.617855291598984 L-53.133288224578315,6.663524521076903 L-52.97027123250405,6.713094451455902 L-52.81251582673005,6.766445664431884 L-52.66040205384658,6.823449632259775 L-52.51429636925611,6.883969027388121 L-52.374550754350146,6.947858053293182 L-52.24150186855529,7.0149627957155385 L-52.11547023829111,7.085121593453012 L-51.99675948479399,7.158165427816669 L-51.885655592666936,7.233918329811641 L-51.782426220917635,7.312197804061853 L-51.68732005814445,7.392815268457364 L-51.600566223423826,7.475576508465189 L-51.522373714342336,7.560282145009123 L-51.452930903503216,7.646728114791391 L-51.42154374900336,7.690538794793348 L-51.392405084720245,7.734706161899016 L-51.36553246269567,7.779203611337975 L-51.340942069992316,7.824004339510548 L-51.318648718943244,7.869081360133294 L-51.298665838229525,7.914407520494526 L-51.2810054647913,7.959955517810098 L-51.26567823657716,8.005697915669575 L-51.25269338613626,8.051607160562906 L-51.242058735056965,8.097655598477626 L-51.23378068925544,8.143815491556595 L-51.22786423511693,8.19005903480625 L-51.22431293649218,8.236358372845297 L-51.22312893255071,8.282685616683738 " />
			<path d="M-51.22312893255071,8.282685616683747 L-51.22579277425699,8.35216776141943 L-51.23378068925544,8.421555741810899 L-51.24708185207744,8.49075552112836 L-51.26567823657716,8.559673317697916 L-51.28954464036111,8.628215731997383 L-51.318648718943244,8.696289873234198 L-51.35295102957918,8.763803485233888 L-51.392405084720245,8.830665071468477 L-51.4369574150148,8.896784019055406 L-51.48654764177158,8.9620707215589 L-51.541108558786746,9.026436700427379 L-51.600566223423826,9.089794724902303 L-51.664840056823,9.152058930236002 L-51.73384295310414,9.21314493405822 L-51.80748139741529,9.272969950733705 L-51.885655592666936,9.331452903555853 L-51.9682595947801,9.388514534624361 L-52.05518145626499,9.444077512257978 L-52.146303377935695,9.498066535796784 L-52.24150186855529,9.550408437651953 L-52.34064791219495,9.601032282464745 L-52.44360714308035,9.649869463240275 L-52.55024002768822,9.696853794325833 L-52.66040205384658,9.741921601107718 L-52.773943926582014,9.78501180630504 L-52.89071177044887,9.826066012743537 L-53.010547338065955,9.865028582497215 L-53.13328822457831,9.90184671229059 L-53.25876808775326,9.936470505059308 L-53.38681687341251,9.968853037572188 L-53.51726104589487,9.998950424023036 L-53.64992382323706,10.02672187550603 L-53.784625416754125,10.052129755294114 L-53.92118327469458,10.075139629845445 L-54.05941232964018,10.095720315468789 L-54.19912524931499,10.113843920584625 L-54.340132690463854,10.129485883524671 L-54.48224355545621,10.142625005818614 L-54.62526525126749,10.15324348092293 L-54.76900395048713,10.16132691835286 L-54.91326485399946,10.166864363184843 L-55.05785245498143,10.169848310902958 L-55.20257080385952,10.170274717569283 L-55.34722377386665,10.168143005304362 L-55.49161532683917,10.163456063070361 L-55.63554977889386,10.156220242755865 L-55.778832065624776,10.146445350567593 L-55.92126800646051,10.134144633740734 L-56.062664567823674,10.119334762585881 L-56.202830124736025,10.102035807896911 L-56.34157472051445,10.082271213750431 L-56.4787103242062,10.060067765733638 L-56.61405108541417,10.035455554643669 L-56.74741358616712,10.008467935707621 L-56.87861708949336,9.979141483378521 L-57.007483784361064,9.94751594176851 L-57.13383902665325,9.913634170786375 L-57.25751157585086,9.877542088052504 L-57.37833382710324,9.839288606669893 L-57.49614203837136,9.798925568935609 L-57.610776552336056,9.756507676082514 L-57.72208201277059,9.71209241414646 L-57.82990757508419,9.665739976059449 L-57.934107110751235,9.617513180074322 " />
			<path d="M-64.34897982967563,12.697884480206383 L-64.48202871547049,12.630779737784025 L-64.60806034573466,12.560620940046553 L-64.72677109923178,12.487577105682897 L-64.83787499135883,12.411824203687924 L-64.94110436310814,12.333544729437712 L-65.03621052588132,12.252927265042201 L-65.12296436060196,12.170166025034376 L-65.20115686968344,12.085460388490443 L-65.27059968052257,11.999014418708175 L-65.30198683502242,11.955203738706219 L-65.33112549930553,11.91103637160055 L-65.3579981213301,11.866538922161592 L-65.38258851403346,11.821738193989018 L-65.40488186508253,11.776661173366271 L-65.42486474579624,11.731335013005038 L-65.44252511923447,11.685787015689467 L-65.45785234744862,11.640044617829988 L-65.47083719788952,11.594135372936657 L-65.48147184896881,11.548086935021939 L-65.48974989477034,11.501927041942972 L-65.49566634890884,11.455683498693315 L-65.49921764753358,11.409384160654268 L-65.50040165147507,11.363056916815836 " />
			<path d="M-65.50040165147507,11.363056916815818 L-65.49921764753358,11.316729672977369 L-65.49566634890884,11.270430334938322 L-65.48974989477034,11.224186791688664 L-65.48147184896881,11.178026898609698 L-65.47083719788952,11.13197846069498 L-65.45785234744862,11.086069215801647 L-65.44252511923447,11.04032681794217 L-65.42486474579624,10.994778820626598 L-65.40488186508253,10.949452660265365 L-65.38258851403346,10.90437563964262 L-65.3579981213301,10.859574911470046 L-65.33112549930553,10.815077462031088 L-65.30198683502242,10.77091009492542 L-65.27059968052257,10.727099414923462 L-65.20115686968344,10.640653445141194 L-65.12296436060196,10.555947808597262 L-65.03621052588132,10.473186568589435 L-64.94110436310814,10.392569104193925 L-64.83787499135883,10.314289629943712 L-64.72677109923178,10.23853672794874 L-64.60806034573466,10.165492893585084 L-64.48202871547048,10.09533409584761 L-64.34897982967563,10.028229353425255 L-64.20923421476967,9.964340327520192 L-64.0631285301792,9.903820932391847 L-63.911014757295725,9.846816964563956 L-63.75325935152173,9.793465751587974 L-63.590242359447466,9.743895821208975 L-63.42235650328543,9.698226591731055 L-63.25000623476819,9.656568084328178 L-63.073606760788714,9.619020657993534 L-62.89358304313056,9.585674767765926 L-62.71036877469781,9.556610746815668 L-62.52440533471078,9.53189861291494 L-62.33614072538487,9.511597899758831 L-62.14602849265399,9.49575751354347 L-61.95452663353864,9.484415615146705 L-61.76209649279102,9.477599528195203 L-61.56920165147507,9.47532567323945 L-61.37630681015912,9.477599528195203 L-61.183876669411504,9.484415615146705 L-60.99237481029615,9.49575751354347 L-60.802262577565266,9.511597899758831 L-60.61399796823936,9.53189861291494 L-60.428034528252326,9.556610746815668 L-60.244820259819576,9.585674767765926 L-60.06479654216143,9.619020657993534 L-59.888397068181945,9.656568084328178 L-59.71604679966471,9.698226591731055 L-59.54816094350268,9.743895821208975 L-59.38514395142841,9.793465751587974 L-59.227388545654414,9.846816964563956 L-59.075274772770946,9.903820932391847 L-58.92916908818047,9.964340327520192 L-58.78942347327451,10.028229353425255 L-58.656374587479654,10.09533409584761 L-58.530342957215474,10.165492893585084 L-58.411632203718355,10.238536727948741 L-58.3005283115913,10.314289629943712 L-58.197298939842,10.392569104193925 L-58.102192777068815,10.473186568589435 L-58.01543894234819,10.555947808597262 L-57.9372464332667,10.640653445141194 L-57.86780362242758,10.727099414923464 L-57.83641646792772,10.77091009492542 L-57.80727780364461,10.815077462031088 L-57.78040518162003,10.859574911470046 L-57.75581478891668,10.90437563964262 L-57.73352143786761,10.949452660265365 L-57.71353855715389,10.994778820626598 L-57.695878183715664,11.04032681794217 L-57.68055095550152,11.086069215801647 L-57.66756610506062,11.131978460694977 L-57.65693145398133,11.178026898609698 L-57.648653408179804,11.224186791688666 L-57.6427369540413,11.270430334938322 L-57.639185655416554,11.316729672977369 L-57.63800165147507,11.36305691681581 " />
			<path d="M-57.63800165147507,11.363056916815818 L-57.64066549318135,11.432539061551502 L-57.648653408179804,11.50192704194297 L-57.66195457100181,11.571126821260432 L-57.68055095550152,11.640044617829988 L-57.70441735928547,11.708587032129454 L-57.73352143786761,11.77666117336627 L-57.767823748503545,11.84417478536596 L-57.80727780364461,11.911036371600549 L-57.85183013393916,11.977155319187478 L-57.901420360695944,12.042442021690972 L-57.95598127771112,12.10680800055945 L-58.01543894234819,12.170166025034375 L-58.07971277574737,12.232430230368074 L-58.1487156720285,12.293516234190292 L-58.22235411633965,12.353341250865777 L-58.3005283115913,12.411824203687924 L-58.383132313704465,12.468885834756433 L-58.470054175189354,12.52444881239005 L-58.56117609686006,12.578437835928856 L-58.656374587479654,12.630779737784025 L-58.75552063111932,12.681403582596817 L-58.858479862004714,12.730240763372347 L-58.96511274661258,12.777225094457904 L-59.075274772770946,12.82229290123979 L-59.18881664550638,12.865383106437111 L-59.30558448937323,12.906437312875608 L-59.42542005699032,12.945399882629287 L-59.54816094350267,12.982218012422662 L-59.673640806677625,13.01684180519138 L-59.80168959233688,13.04922433770426 L-59.932133764819234,13.079321724155108 L-60.064796542161424,13.107093175638102 L-60.19949813567849,13.132501055426186 L-60.33605599361894,13.155510929977517 L-60.474285048564546,13.17609161560086 L-60.61399796823935,13.194215220716696 L-60.75500540938822,13.209857183656743 L-60.89711627438057,13.222996305950685 L-61.04013797019186,13.233614781055001 L-61.1838766694115,13.241698218484931 L-61.32813757292382,13.247235663316914 L-61.47272517390579,13.25021961103503 L-61.61744352278389,13.250646017701355 L-61.76209649279102,13.248514305436434 L-61.90648804576353,13.243827363202433 L-62.050422497818225,13.236591542887936 L-62.19370478454914,13.226816650699664 L-62.33614072538487,13.214515933872805 L-62.47753728674804,13.199706062717953 L-62.61770284366039,13.182407108028983 L-62.756447439438816,13.162642513882503 L-62.89358304313056,13.14043906586571 L-63.02892380433853,13.11582685477574 L-63.162286305091484,13.088839235839693 L-63.293489808417725,13.059512783510593 L-63.42235650328543,13.027887241900581 L-63.54871174557761,12.994005470918447 L-63.67238429477523,12.957913388184576 L-63.793206546027605,12.919659906801964 L-63.91101475729572,12.87929686906768 L-64.02564927126042,12.836878976214585 L-64.13695473169496,12.792463714278531 L-64.24478029400855,12.74611127619152 L-64.3489798296756,12.697884480206394 " />
			<path d="M-52.514781820776015,5.728612323077772 L-52.467611536353814,5.656075657331157 L-52.41439985217356,5.5845093909727135 L-52.35523299668556,5.514029495679271 L-52.29020684857388,5.444750182685479 L-52.21942678138698,5.376783717706827 L-52.14300749278193,5.310240239015337 L-52.06107281865927,5.245227578962739 L-51.97375553248939,5.181851089240344 L-51.8811971301559,5.120213470158768 L-51.78354760066435,5.060414604224175 L-51.68096518308817,5.002551394280713 L-51.573616110145444,4.946717606481422 L-51.46167433882218,4.893003718342098 L-51.345321268478536,4.84149677212432 L-51.22474544689492,4.79228023378524 L-51.10014226473407,4.745433857722695 L-50.971713638914515,4.701033557534835 L-50.83966768540831,4.659151283003682 L-50.704218381993336,4.619854903501975 L-50.56558522150668,4.583208098012226 L-50.42399285616095,4.54927025193624 L-50.27967073349997,4.518096360862268 L-50.13285272458366,4.489736941445786 L-49.983776745004796,4.464237949548275 L-49.83268436935161,4.4416407057666945 L-49.67982043974111,4.4219818284742844 L-49.52543266905738,4.405293174481248 L-49.36977123953795,4.391601787411432 L-49.21308839735852,4.3809298538786905 L-49.05563804387324,4.373294667533927 L-48.89767532417265,4.368708601041084 L-48.73945621362635,4.3671790860274955 L-48.58123710308004,4.368708601041084 L-48.42327438337946,4.373294667533927 L-48.26582402989417,4.3809298538786905 L-48.10914118771475,4.391601787411432 L-47.953479758195314,4.405293174481248 L-47.79909198751159,4.4219818284742844 L-47.64622805790108,4.4416407057666945 L-47.4951356822479,4.464237949548275 L-47.34605970266903,4.489736941445786 L-47.199241693752725,4.518096360862268 L-47.054919571091745,4.54927025193624 L-46.913327205746015,4.583208098012227 L-46.77469404525936,4.619854903501975 L-46.63924474184439,4.659151283003682 L-46.50719878833818,4.701033557534835 L-46.37877016251863,4.745433857722695 L-46.25416698035777,4.792280233785239 L-46.13359115877416,4.84149677212432 L-46.017238088430524,4.893003718342098 L-45.90529631710725,4.946717606481422 L-45.797947244164526,5.002551394280713 L-45.695364826588346,5.060414604224174 L-45.5977152970968,5.120213470158767 L-45.5051568947633,5.181851089240344 L-45.417839608593425,5.24522757896274 L-45.33590493447076,5.310240239015337 L-45.259485645865716,5.376783717706826 L-45.188705578678814,5.444750182685479 L-45.12367943056714,5.514029495679271 L-45.064512575079135,5.5845093909727135 L-45.01130089089888,5.656075657331157 L-44.96413060647669,5.728612323077764 " />
			<path d="M-58.92965453970037,8.80898362320984 L-58.88248425527817,8.736446957463226 L-58.82927257109792,8.664880691104782 L-58.770105715609915,8.594400795811339 L-58.70507956749824,8.525121482817548 L-58.634299500311336,8.457155017838895 L-58.55788021170629,8.390611539147406 L-58.47594553758363,8.325598879094809 L-58.38862825141375,8.262222389372413 L-58.296069849080254,8.200584770290837 L-58.198420319588706,8.140785904356244 L-58.09583790201253,8.082922694412781 L-57.9884888290698,8.027088906613491 L-57.876547057746535,7.973375018474167 L-57.7601939874029,7.921868072256389 L-57.63961816581928,7.872651533917308 L-57.51501498365843,7.825805157854763 L-57.38658635783887,7.781404857666904 L-57.254540404332666,7.739522583135751 L-57.11909110091769,7.700226203634044 L-56.98045794043104,7.663579398144295 L-56.83886557508531,7.629641552068309 L-56.69454345242433,7.598467660994337 L-56.54772544350802,7.570108241577854 L-56.39864946392916,7.544609249680344 L-56.247557088275975,7.5220120058987625 L-56.09469315866547,7.5023531286063525 L-55.94030538798174,7.485664474613316 L-55.784643958462304,7.4719730875435 L-55.62796111628288,7.4613011540107586 L-55.470510762797595,7.453665967665995 L-55.31254804309701,7.449079901173152 L-55.154328932550705,7.4475503861595636 L-54.9961098220044,7.449079901173152 L-54.83814710230382,7.453665967665995 L-54.680696748818534,7.4613011540107586 L-54.52401390663911,7.4719730875435 L-54.36835247711968,7.485664474613316 L-54.213964706435945,7.502353128606352 L-54.06110077682544,7.522012005898762 L-53.910008401172256,7.544609249680343 L-53.760932421593395,7.570108241577853 L-53.61411441267709,7.598467660994336 L-53.4697922900161,7.629641552068307 L-53.32819992467038,7.663579398144294 L-53.18956676418372,7.700226203634042 L-53.054117460768744,7.73952258313575 L-52.92207150726254,7.781404857666902 L-52.793642881442985,7.825805157854761 L-52.66903969928214,7.872651533917306 L-52.54846387769852,7.9218680722563874 L-52.43211080735488,7.973375018474165 L-52.32016903603161,8.02708890661349 L-52.21281996308888,8.08292269441278 L-52.1102375455127,8.140785904356242 L-52.012588016021155,8.200584770290833 L-51.92002961368766,8.262222389372411 L-51.83271232751779,8.325598879094807 L-51.750777653395126,8.390611539147404 L-51.67435836479007,8.457155017838893 L-51.60357829760317,8.525121482817546 L-51.5385521494915,8.594400795811337 L-51.47938529400349,8.664880691104779 L-51.42617360982324,8.736446957463222 L-51.379003325401044,8.80898362320983 " />
			<path d="M-65.34452725862474,11.889354923341912 L-65.29735697420253,11.816818257595298 L-65.24414529002229,11.745251991236854 L-65.18497843453427,11.67477209594341 L-65.1199522864226,11.60549278294962 L-65.0491722192357,11.537526317970967 L-64.97275293063065,11.470982839279477 L-64.89081825650798,11.40597017922688 L-64.80350097033812,11.342593689504485 L-64.71094256800463,11.280956070422908 L-64.61329303851308,11.221157204488316 L-64.51071062093689,11.163293994544853 L-64.40336154799417,11.107460206745563 L-64.29141977667089,11.053746318606239 L-64.17506670632726,11.00223937238846 L-64.05449088474364,10.95302283404938 L-63.929887702582796,10.906176457986835 L-63.80145907676324,10.861776157798975 L-63.66941312325703,10.819893883267824 L-63.53396381984206,10.780597503766115 L-63.3953306593554,10.743950698276366 L-63.25373829400967,10.71001285220038 L-63.10941617134869,10.67883896112641 L-62.962598162432386,10.650479541709926 L-62.813522182853525,10.624980549812415 L-62.66242980720034,10.602383306030834 L-62.509565877589836,10.582724428738425 L-62.3551781069061,10.566035774745387 L-62.19951667738667,10.552344387675571 L-62.04283383520725,10.54167245414283 L-61.88538348172196,10.534037267798066 L-61.727420762021374,10.529451201305225 L-61.56920165147507,10.527921686291634 L-61.410982540928764,10.529451201305223 L-61.253019821228186,10.534037267798066 L-61.0955694677429,10.54167245414283 L-60.93888662556348,10.552344387675571 L-60.78322519604404,10.566035774745387 L-60.62883742536031,10.582724428738423 L-60.475973495749805,10.602383306030834 L-60.32488112009662,10.624980549812415 L-60.17580514051776,10.650479541709924 L-60.028987131601454,10.678838961126408 L-59.884665008940466,10.710012852200379 L-59.74307264359474,10.743950698276365 L-59.60443948310809,10.780597503766113 L-59.46899017969311,10.819893883267822 L-59.3369442261869,10.861776157798975 L-59.20851560036735,10.906176457986833 L-59.0839124182065,10.953022834049378 L-58.96333659662288,11.002239372388459 L-58.846983526279246,11.053746318606237 L-58.73504175495597,11.10746020674556 L-58.62769268201325,11.163293994544851 L-58.52511026443707,11.221157204488314 L-58.42746073494552,11.280956070422905 L-58.334902332612025,11.342593689504483 L-58.247585046442154,11.405970179226879 L-58.16565037231949,11.470982839279475 L-58.08923108371444,11.537526317970965 L-58.018451016527536,11.605492782949618 L-57.953424868415865,11.674772095943409 L-57.89425801292786,11.74525199123685 L-57.8410463287476,11.816818257595294 L-57.79387604432541,11.889354923341902 " />
			<path d="M-51.6329371622417,26.64892978689818 L-51.686138408103,26.622208743523732 L-51.739272307915215,26.593173076432986 L-51.79227160088085,26.561859541108433 L-51.84506919659766,26.528307776525676 " />
			<path d="M-52.79446922153488,25.40457871660175 L-52.845206623646376,25.298026378333258 L-52.89216947925428,25.189903850612705 L-52.935211563869665,25.08054778591049 L-52.974198860794786,24.970298677462488 L-53.00900997840017,24.859499799103485 L-53.03953652809199,24.7484961364429 L-53.06568346179302,24.637633312710644 L-53.087369367886176,24.527256512617733 " />
			<path d="M50.15252759053528,-25.241461314344473 L-51.84506919659767,23.7369804400245 " />
			<path d="M51.6329371622417,-22.938528840889227 L-51.63293716224172,26.648929786898186 " />
			<path d="M-51.6329371622417,26.64892978689818 L-51.6329371622417,25.056878317156773 " />
			<path d="M-52.91162192488734,24.44286397620965 L-51.63293716224169,25.056878317156745 " />
			<path d="M51.6329371622417,-24.530580310630658 L-51.632937162241674,25.056878317156766 " />
			<path d="M50.152527590535286,-25.241461314344473 L51.6329371622417,-24.530580310630672 " />
			<path d="M51.632937162241696,-22.93852884088922 L51.632937162241696,-24.530580310630654 " />
			<path d="M-103.23759005323595,7.781287730896526 L-103.23759005323595,3.658620013108803 " />
			<path d="M-101.82337649086284,3.811416208551864 L-101.82337649086284,-0.3112515092358592 " />
			<path d="M-104.99494936611666,5.744005124989073 L-104.99494936611666,1.6213374072013496 " />
			<path d="M-103.58073580374358,1.7741336026444072 L-103.58073580374358,-2.348534115143316 " />

       </g>
    </g>
    
</svg>
