<?xml version="1.0" encoding="UTF-8" standalone="no"?>
<svg
   xmlns:svg="http://www.w3.org/2000/svg"
   xmlns="http://www.w3.org/2000/svg"
   width="900.0"
   height="600.0"

>
    <g transform="scale(4.118619332233678, -4.118619332233678)   translate(116.72573171062021,-40.93999788380864)" stroke-width="0.4"  fill="none">
       <!-- hidden lines -->
       <g  stroke="rgb(170,170,170)" fill="none" stroke-dasharray="0.4,0.4" >

       </g>

       <!-- solid lines -->
       <g  stroke="rgb(40,40,40)" fill="none">
			<path d="M56.876133944739955,-27.087794414920754 L56.410327352633324,-27.31147106769434 " />
			<path d="M56.876133944739955,-23.394936735796005 L56.876133944739955,-27.08779441492075 " />
			<path d="M-105.25637991352355,4.303335071103265 L-105.35922172411306,4.252724061674488 L-105.459445978534,4.200916355562427 L-105.55699230544316,4.147943159792032 L-105.65180194658068,4.093836383435637 L-105.7438177921639,4.038628618392137 L-105.83298441528812,3.982353119754844 L-105.91924810531376,3.9250437857798586 L-106.00255690021953,3.866735137467035 L-106.0828606179025,3.8074622977658157 L-106.16011088640589,3.747260970418482 L-106.23426117305652,3.6861674184535556 L-106.30526681249438,3.624218442342305 L-106.37308503357734,3.561451357831518 L-106.43767498514491,3.4979039734658923 L-106.49899776062544,3.433614567813579 L-106.55701642147197,3.368621866408608 L-106.61169601941269,3.3029650184240724 L-106.66300361750238,3.236683573090129 L-106.71090830996248,3.169817455871025 L-106.7553812407975,3.1024069444154883 L-106.7963956211769,3.0344926442949776 L-106.83392674557152,2.9661154645444068 L-106.86795200663542,2.8973165930200677 L-106.89845090882363,2.8281374715896153 L-106.9254050807379,2.7586197711690237 L-106.94879828619294,2.6888053666215894 L-106.96861643399652,2.6187363115340876 L-106.98484758643744,2.54845481288525 L-106.9974819664764,2.4780032056218686 L-107.00651196363529,2.407423927157803 L-107.01193213858149,2.336759491811271 L-107.01373922640425,2.266052465195837 " />
			<path d="M-107.01373922640425,2.266052465195811 L-107.0121040316953,2.198791856626277 L-107.00719933885568,2.131567909453828 L-106.99902782126134,2.064417265092707 L-106.9875939329197,1.9973765250023687 L-106.97290390604199,1.9304822307373062 L-106.95496574764633,1.8637708440295333 L-106.93378923519325,1.797278726914574 L-106.90938591125645,1.7310421219117929 L-106.88176907723135,1.6650971322698696 L-106.85095378608492,1.5994797022881855 L-106.81695683415079,1.534225597724848 L-106.7797967519743,1.46937038630203 L-106.73949379421204,1.404949418319254 L-106.69606992859175,1.3409978073851834 L-106.64954882393855,1.277550411278428 L-106.59995583727384,1.2146418129477912 L-106.54731799999406,1.1523063016623192 L-106.4916640031369,1.0905778543214228 L-106.43302418174277,1.0294901169352635 L-106.3714304983202,0.9690763862854936 L-106.30691652542427,0.9093695917763482 L-106.23951742735738,0.8504022774859843 L-106.16926994100237,0.7922065844278445 L-106.09621235579857,0.73481423303172 L-106.02038449287157,0.6782565058540566 L-105.94182768332813,0.6225642305269308 L-105.86058474572802,0.5677677629549913 L-105.77669996274513,0.5138969707695191 L-105.69021905703057,0.4609812170486305 L-105.60118916629082,0.4090493443124936 L-105.50965881759464,0.3581296588022831 L-105.41567790092266,0.30824991505144417 " />
			<path d="M-56.876133944739955,27.53514772046793 L-105.25637991352355,4.3033350711032625 " />
			<path d="M-55.108366991773586,26.68627996800649 L-56.876133944739955,27.535147720467936 " />
			<path d="M-55.108366991773586,26.686279968006495 L-55.574173583880224,26.462603315232908 " />
			<path d="M-105.41567790092265,2.529105928651866 L-105.96348669471008,2.2660524651958163 " />
			<path d="M-105.41567790092265,2.0029990017397665 L-105.9634866947101,2.2660524651958127 " />
			<path d="M55.108366991773586,-26.238926662459313 L53.91188339244085,-26.813468652916967 " />
			<path d="M56.876133944739955,-27.087794414920754 L55.108366991773586,-26.238926662459317 " />
			<path d="M-55.108366991773586,27.388010643374617 L-55.108366991773586,26.686279968006495 " />
			<path d="M-53.46356590805555,26.59819013177439 L-55.108366991773586,27.388010643374617 " />
			<path d="M-53.463565908055564,26.598190131774395 L-53.463565908055564,27.5582454120124 " />
			<path d="M53.463565908055564,-23.78732019525295 L-53.46356590805558,27.558245412012408 " />
			<path d="M53.463565908055564,-24.74737547549097 L53.463565908055564,-23.78732019525295 " />
			<path d="M55.108366991773586,-25.53719598709119 L53.46356590805556,-24.747375475490973 " />
			<path d="M55.108366991773586,-25.53719598709119 L55.108366991773586,-26.238926662459313 " />
			<path d="M56.876133944739955,-23.394936735796005 L-56.876133944739955,31.228005399592686 " />
			<path d="M-56.876133944739955,31.22800539959268 L-56.876133944739955,27.535147720467933 " />
			<path d="M-56.876133944739955,31.22800539959268 L-105.25637991352355,7.996192750228012 " />
			<path d="M-105.25637991352355,7.996192750228013 L-105.35922172411306,7.945581740799236 L-105.459445978534,7.8937740346871745 L-105.55699230544316,7.840800838916779 L-105.65180194658068,7.786694062560384 L-105.7438177921639,7.731486297516884 L-105.83298441528812,7.675210798879592 L-105.91924810531376,7.617901464904606 L-106.00255690021953,7.559592816591783 L-106.0828606179025,7.500319976890563 L-106.16011088640589,7.44011864954323 L-106.23426117305652,7.379025097578303 L-106.30526681249438,7.3170761214670526 L-106.37308503357734,7.254309036956266 L-106.43767498514491,7.1907616525906395 L-106.49899776062544,7.126472246938327 L-106.55701642147197,7.061479545533356 L-106.61169601941269,6.99582269754882 L-106.66300361750238,6.929541252214877 L-106.71090830996248,6.862675134995773 L-106.7553812407975,6.795264623540236 L-106.7963956211769,6.727350323419725 L-106.83392674557152,6.658973143669154 L-106.86795200663542,6.590174272144815 L-106.89845090882363,6.520995150714363 L-106.9254050807379,6.451477450293772 L-106.94879828619294,6.381663045746337 L-106.96861643399652,6.311593990658835 L-106.98484758643744,6.241312492009998 L-106.9974819664764,6.170860884746617 L-107.00651196363529,6.10028160628255 L-107.01193213858149,6.029617170936018 L-107.01373922640425,5.958910144320585 " />
			<path d="M55.108366991773586,-25.53719598709119 L52.181548904703554,-26.942630955351905 " />
			<path d="M-54.78782518214051,25.962291269776554 L-53.463565908055564,26.598190131774395 " />
			<path d="M-54.405859410383904,25.778874317873374 L-54.78782518214053,25.962291269776543 " />
			<path d="M53.25143387369958,-24.84923960578635 L53.463565908055564,-24.74737547549097 " />
			<path d="M53.463565908055564,-23.78732019525295 L53.40136875159077,-23.818766084381203 L53.339275790541826,-23.853317903973476 L53.27739104577181,-23.890917771299826 L53.21581818933073,-23.931502697406504 " />
			<path d="M56.876133944739955,-31.22800539959268 L10.093949301437974,-53.6924416007322 " />
			<path d="M56.876133944739955,-27.53514772046793 L56.876133944739955,-31.228005399592675 " />
			<path d="M10.093949301437975,-53.6924416007322 L9.988551882741092,-53.74182542729808 L9.8806623434008,-53.78995232403052 L9.770345672041351,-53.836793301086516 L9.657668319300562,-53.88232014321298 L9.542698157802452,-53.92650542674257 L9.42550444127329,-53.96932253611269 L9.306157762825762,-54.01074567989769 L9.184730012436304,-54.050749906344656 L8.93592507947802,-54.12640608824178 L8.679689035274677,-54.19610881943519 L8.416639174900382,-54.25969017994019 L8.14740920850923,-54.31699699669026 L7.87264773467201,-54.367891212544365 L7.593016677845464,-54.4122502188787 L7.309189693738274,-54.44996715096162 L7.021850546415459,-54.48095114540012 L6.73169146105086,-54.50512755903773 L6.439411456296054,-54.52243814877638 L6.145714660283199,-54.53284121188918 L5.85130861431869,-54.53631168648587 L5.5569025683541815,-54.53284121188918 L5.263205772341326,-54.52243814877639 L4.97092576758652,-54.50512755903773 L4.68076668222192,-54.48095114540012 L4.393427534899106,-54.44996715096162 L4.109600550791916,-54.4122502188787 L3.82996949396537,-54.367891212544365 L3.555208020128151,-54.31699699669026 L3.285978053736996,-54.259690179940186 L3.0229281933627035,-54.19610881943519 L2.7666921491593603,-54.12640608824178 L2.517887216201078,-54.050749906344656 L2.3964594658116205,-54.01074567989769 L2.277112787364092,-53.96932253611269 L2.159919070834931,-53.92650542674257 L2.044948909336818,-53.88232014321298 L1.9322715565960285,-53.836793301086516 L1.821954885236579,-53.78995232403052 L1.7140653458962882,-53.74182542729808 L1.6086679271994244,-53.69244160073221 " />
			<path d="M56.876133944739955,-31.22800539959268 L-56.876133944739955,23.394936735796012 " />
			<path d="M1.6086679271993969,-53.6924416007322 L-103.65831858804195,-3.1440646771584255 " />
			<path d="M-56.876133944739955,23.394936735796005 L-103.65831858804194,0.9305005346564812 " />
			<path d="M-103.65831858804194,0.9305005346564821 L-103.76116039863145,0.8798895252277057 L-103.8613846530524,0.828081819115644 L-103.95893097996155,0.7751086233452487 L-104.05374062109907,0.721001846988854 L-104.14575646668229,0.665794081945354 L-104.23492308980651,0.6095185833080607 L-104.32118677983215,0.5522092493330757 L-104.40449557473792,0.4939006010202518 L-104.48479929242089,0.43462776131903236 L-104.56204956092428,0.3744264339716987 L-104.63619984757491,0.31333288200677223 L-104.70720548701277,0.2513839058955216 L-104.77502370809573,0.18861682138473523 L-104.8396136596633,0.12506943701910922 L-104.90093643514383,0.060780031366796106 L-104.95895509599036,-0.004212670038174826 L-105.01363469393108,-0.06986951802271091 L-105.06494229202077,-0.1361509633566541 L-105.11284698448087,-0.20301708057575796 L-105.1573199153159,-0.27042759203129485 L-105.19833429569529,-0.33834189215180543 L-105.23586542008991,-0.4067190719023762 L-105.26989068115381,-0.4755179434267156 L-105.30038958334202,-0.5446970648571677 L-105.3273437552563,-0.6142147652777592 L-105.35073696071133,-0.6840291698251938 L-105.3705551085149,-0.7540982249126955 L-105.38678626095583,-0.8243797235615329 L-105.39942064099479,-0.8948313308249145 L-105.40845063815368,-0.9654106092889801 L-105.41387081309988,-1.0360750446355123 L-105.41567790092265,-1.106782071250946 " />
			<path d="M-105.41567790092265,-1.1067820712509722 L-105.41387081309988,-1.1774890978664316 L-105.40845063815368,-1.2481535332129639 L-105.39942064099479,-1.3187328116770298 L-105.38678626095583,-1.3891844189404117 L-105.3705551085149,-1.4594659175892493 L-105.35073696071133,-1.5295349726767513 L-105.3273437552563,-1.5993493772241836 L-105.30038958334202,-1.6688670776447752 L-105.26989068115381,-1.7380461990752276 L-105.23586542008991,-1.8068450705995647 L-105.19833429569529,-1.8752222503501357 L-105.1573199153159,-1.9431365504706466 L-105.11284698448087,-2.010547061926184 L-105.06494229202077,-2.077413179145288 L-105.01363469393108,-2.143694624479231 L-104.95895509599036,-2.2093514724637675 L-104.90093643514383,-2.274344173868739 L-104.8396136596633,-2.338633579521052 L-104.77502370809574,-2.4021809638866785 L-104.70720548701277,-2.4649480483974653 L-104.63619984757491,-2.526897024508716 L-104.56204956092428,-2.5879905764736426 L-104.48479929242089,-2.648191903820976 L-104.40449557473792,-2.707464743522196 L-104.32118677983215,-2.7657733918350202 L-104.23492308980651,-2.8230827258100053 L-104.14575646668229,-2.879358224447299 L-104.05374062109907,-2.9345659894907987 L-103.95893097996155,-2.988672765847194 L-103.8613846530524,-3.0416459616175895 L-103.76116039863145,-3.0934536677296496 L-103.65831858804194,-3.1440646771584237 " />
			<path d="M-35.44570730596301,9.029649625021364 L-56.87613394473995,-1.2610722739383693 " />
			<path d="M-35.44570730596301,9.029649625021364 L-56.87613394473995,19.320371523981095 " />
			<path d="M-56.876133944739955,19.3203715239811 L-78.3065605835169,9.029649625021365 " />
			<path d="M-56.87613394473995,-1.2610722739383675 L-78.30656058351688,9.029649625021365 " />
			<path d="M56.876133944739955,-27.53514772046793 L55.108366991773586,-26.68627996800649 " />
			<path d="M55.108366991773586,-26.686279968006495 L55.108366991773586,-27.388010643374617 " />
			<path d="M55.108366991773586,-27.388010643374617 L53.46356590805556,-26.5981901317744 " />
			<path d="M53.463565908055564,-27.5582454120124 L53.463565908055564,-26.598190131774395 " />
			<path d="M53.463565908055564,-27.5582454120124 L-53.46356590805558,23.787320195252956 " />
			<path d="M-53.463565908055564,23.78732019525295 L-53.463565908055564,24.74737547549097 " />
			<path d="M-53.46356590805555,24.747375475490966 L-55.108366991773586,25.53719598709119 " />
			<path d="M-55.108366991773586,26.238926662459313 L-55.108366991773586,25.53719598709119 " />
			<path d="M-55.108366991773586,26.238926662459317 L-56.876133944739955,27.08779441492076 " />
			<path d="M-56.876133944739955,27.087794414920754 L-56.876133944739955,23.39493673579601 " />
			<path d="M-103.65831858804194,4.62335821378123 L-103.76116039863145,4.572747204352453 L-103.8613846530524,4.520939498240391 L-103.95893097996155,4.467966302469996 L-104.05374062109907,4.413859526113601 L-104.14575646668229,4.358651761070101 L-104.23492308980651,4.302376262432809 L-104.32118677983215,4.245066928457823 L-104.40449557473792,4.186758280145 L-104.48479929242089,4.12748544044378 L-104.56204956092428,4.067284113096447 L-104.63619984757491,4.00619056113152 L-104.70720548701277,3.9442415850202694 L-104.77502370809573,3.8814745005094826 L-104.8396136596633,3.817927116143857 L-104.90093643514383,3.7536377104915437 L-104.95895509599036,3.6886450090865726 L-105.01363469393108,3.622988161102037 L-105.06494229202077,3.5567067157680934 L-105.11284698448087,3.4898405985489895 L-105.1573199153159,3.4224300870934528 L-105.19833429569529,3.354515786972942 L-105.23586542008991,3.2861386072223713 L-105.26989068115381,3.217339735698032 L-105.30038958334202,3.1481606142675798 L-105.3273437552563,3.078642913846988 L-105.35073696071133,3.008828509299554 L-105.3705551085149,2.938759454212052 L-105.38678626095583,2.8684779555632147 L-105.39942064099479,2.798026348299833 L-105.40845063815368,2.7274470698357676 L-105.41387081309988,2.6567826344892356 L-105.41567790092265,2.5860756078738016 " />
			<path d="M-56.876133944739955,27.087794414920754 L-103.65831858804194,4.623358213781231 " />
			<path d="M55.108366991773586,-26.686279968006495 L54.37768998454749,-27.037145305690554 " />
			<path d="M-56.87613394473995,-0.7347742674122757 L-56.87613394473995,-1.261072273938368 " />
			<path d="M-35.99371506138259,9.292798628284409 L-56.87613394473995,-0.734774267412277 " />
			<path d="M-56.87613394473995,-0.7347742674122757 L-77.75855282809732,9.292798628284412 " />
			<path d="M52.46390842754437,-27.0782177718934 L53.463565908055564,-26.598190131774395 " />
			<path d="M-53.2329076760325,7.806499103144631 L-53.36625100762163,7.739245853584739 L-53.49256155403947,7.668931789887683 L-53.611535022116215,7.59572630479169 L-53.72288479434642,7.5198057567224 L-53.826342619375694,7.441353044929968 L-53.921659258241704,7.360557168868747 L-54.00860508481268,7.27761277288105 L-54.08697063897684,7.192719677281884 L-54.156567131250206,7.106082396974305 L-54.188023747554126,7.06217476110238 L-54.217226897586954,7.0179096487551025 L-54.24415899046308,6.973313723580969 L-54.268803803296805,6.928413848497756 L-54.29114649097442,6.883237069511299 L-54.31117359509631,6.837810599423992 L-54.328873052083814,6.792161801442811 L-54.34423420044586,6.746318172696738 L-54.35724778720108,6.7003073276735305 L-54.367905973451414,6.654156981585771 L-54.37620233910399,6.607894933676271 L-54.38213188673838,6.561549050472843 L-54.3856910446168,6.515147249002543 L-54.38687766883562,6.468717479975518 " />
			<path d="M-54.38687766883562,6.468717479975501 L-54.3856910446168,6.422287710948459 L-54.38213188673838,6.375885909478159 L-54.37620233910399,6.32954002627473 L-54.367905973451414,6.283277978365231 L-54.35724778720108,6.237127632277471 L-54.34423420044586,6.191116787254263 L-54.328873052083814,6.145273158508192 L-54.31117359509631,6.0996243605270095 L-54.29114649097442,6.054197890439704 L-54.268803803296805,6.009021111453247 L-54.24415899046308,5.964121236370035 L-54.217226897586954,5.919525311195901 L-54.188023747554126,5.875260198848623 L-54.156567131250206,5.831352562976698 L-54.086970638976844,5.744715282669119 L-54.00860508481268,5.6598221870699525 L-53.921659258241704,5.576877791082256 L-53.826342619375694,5.496081915021034 L-53.72288479434642,5.417629203228602 L-53.611535022116215,5.341708655159312 L-53.49256155403947,5.268503170063319 L-53.36625100762163,5.198189106366261 L-53.232907676032504,5.130935856806371 L-53.09285279503739,5.066905440352526 L-52.946423769111966,5.006252111886367 L-52.79397335860536,4.949121990588771 L-52.635868829909555,4.895652707925953 L-52.472491070682494,4.845973076083204 L-52.30423367225637,4.800202777645053 L-52.13150198144159,4.758452077269444 L-51.95471212401084,4.720821556050511 L-51.77429000221563,4.687401869209915 L-51.59067026875048,4.658273527700473 L-51.40429527963649,4.633506704248224 L-51.215614028546966,4.61316106430018 L-51.0250810651423,4.597285622285045 L-50.83315540002006,4.585918623533157 L-50.640299398918216,4.579087452140142 L-50.44697766883562,4.576808564996225 L-50.25365593875303,4.579087452140142 L-50.06079993765118,4.585918623533157 L-49.86887427252894,4.597285622285045 L-49.67834130912428,4.61316106430018 L-49.48966005803475,4.633506704248224 L-49.303285068920765,4.658273527700473 L-49.119665335455615,4.687401869209915 L-48.939243213660404,4.720821556050511 L-48.762453356229656,4.758452077269444 L-48.58972166541487,4.800202777645053 L-48.42146426698875,4.845973076083204 L-48.25808650776169,4.895652707925953 L-48.09998197906589,4.949121990588771 L-47.94753156855928,5.006252111886367 L-47.801102542633856,5.066905440352526 L-47.66104766163874,5.130935856806371 L-47.527704330049616,5.198189106366261 L-47.401393783631775,5.268503170063319 L-47.28242031555503,5.341708655159312 L-47.171070543324824,5.417629203228602 L-47.06761271829555,5.496081915021034 L-46.97229607942954,5.576877791082256 L-46.885350252858565,5.6598221870699525 L-46.8069846986944,5.744715282669119 L-46.73738820642104,5.831352562976699 L-46.70593159011712,5.875260198848624 L-46.67672844008429,5.919525311195902 L-46.64979634720817,5.964121236370035 L-46.62515153437444,6.009021111453247 L-46.602808846696824,6.054197890439703 L-46.58278174257494,6.0996243605270095 L-46.56508228558743,6.145273158508191 L-46.54972113722538,6.191116787254262 L-46.53670755047016,6.2371276322774705 L-46.52604936421983,6.28327797836523 L-46.51775299856725,6.329540026274731 L-46.511823450932866,6.375885909478159 L-46.508264293054445,6.422287710948459 L-46.50707766883562,6.468717479975492 " />
			<path d="M-46.50707766883562,6.468717479975501 L-46.509747405795984,6.538353393193887 L-46.51775299856725,6.607894933676271 L-46.53108359772334,6.677247856583492 L-46.54972113722538,6.746318172696738 L-46.57364035890537,6.81501227579464 L-46.602808846696824,6.883237069511298 L-46.63718707056601,6.950900093503355 L-46.67672844008429,7.0179096487551 L-46.72137936756891,7.084174921851798 L-46.771079340706635,7.149606108052836 L-46.82576100456196,7.214114532997869 L-46.885350252858565,7.2776127728810485 L-46.94976632841042,7.340014772930458 L-47.01892193256641,7.401235964032198 L-47.092723343520184,7.461193377341045 L-47.171070543324824,7.5198057567224 L-47.253857353440225,7.576993668873096 L-47.340971578629556,7.632679610971868 L-47.4322951590097,7.68678811571356 L-47.527704330049616,7.739245853584739 L-47.627069790299906,7.7899817322421265 L-47.73025687662605,7.8389269928591165 L-47.837125746708104,7.886015303309866 L-47.94753156855927,7.931182848064634 L-48.061324716806716,7.974368414674558 L-48.17835097546845,8.015513476728646 L-48.2984517469516,8.054562273170577 L-48.42146426698875,8.091461883867797 L-48.54722182522109,8.126162301330526 L-48.67555399112943,8.15861649848343 L-48.80628684500694,8.188780492398188 L-48.939243213660404,8.21661340390049 L-49.07424291052087,8.242077512970766 L-49.211102979838024,8.265138309863518 L-49.349637944627446,8.285764541875986 L-49.48966005803475,8.303928255702777 L-49.630979557775895,8.31960483531905 L-49.77340492330891,8.332773035340901 L-49.916743135388394,8.343415009817777 L-50.06079993765118,8.351516336417845 L-50.205380099878546,8.357066035973585 L-50.3502876825782,8.3600565873611 L-50.49532630252753,8.360483937692972 L-50.640299398918216,8.35834750781086 L-50.78501049974148,8.35365019307039 L-50.92926348805301,8.346398359417284 L-51.0728628677567,8.336601834760035 L-51.21561402854696,8.324273895650823 L-51.357323509650634,8.309431249292711 L-51.49779926201097,8.292094010897546 L-51.63685090855845,8.272285676425193 L-51.77429000221563,8.250033090741088 L-51.909930281286464,8.225366411235242 L-52.043587921883876,8.198319066952038 L-52.175081787053564,8.16892771328613 L-52.30423367225637,8.137232182305949 L-52.430868546876574,8.103275428772038 L-52.5548147914288,8.067103471923447 L-52.675904430141976,8.028765333111037 L-52.793973358605356,7.988312969362232 L-52.90886156616781,7.94580120296726 L-53.020413352789205,7.9012876471822935 L-53.12847754004993,7.854832628150187 L-53.232907676032475,7.806499103144643 " />
			<path d="M-59.66206395193683,10.89372925471659 L-59.79540728352596,10.826476005156698 L-59.9217178299438,10.756161941459641 L-60.04069129802055,10.682956456363648 L-60.15204107025075,10.607035908294359 L-60.25549889528003,10.528583196501927 L-60.35081553414604,10.447787320440705 L-60.43776136071701,10.364842924453008 L-60.51612691488117,10.279949828853843 L-60.58572340715454,10.193312548546263 L-60.61718002345846,10.149404912674338 L-60.64638317349129,10.105139800327061 L-60.67331526636741,10.060543875152927 L-60.69796007920114,10.015644000069715 L-60.72030276687875,9.970467221083258 L-60.74032987100064,9.92504075099595 L-60.75802932798815,9.87939195301477 L-60.773390476350194,9.833548324268698 L-60.786404063105415,9.787537479245488 L-60.79706224935575,9.74138713315773 L-60.80535861500832,9.69512508524823 L-60.81128816264271,9.648779202044802 L-60.81484732052113,9.6023774005745 L-60.81603394473996,9.555947631547477 " />
			<path d="M-60.81603394473996,9.55594763154746 L-60.81484732052113,9.509517862520418 L-60.81128816264271,9.463116061050117 L-60.80535861500832,9.416770177846688 L-60.79706224935575,9.370508129937189 L-60.786404063105415,9.324357783849429 L-60.773390476350194,9.278346938826221 L-60.75802932798815,9.23250331008015 L-60.74032987100064,9.186854512098968 L-60.72030276687875,9.141428042011661 L-60.69796007920114,9.096251263025206 L-60.67331526636741,9.051351387941994 L-60.64638317349129,9.00675546276786 L-60.61718002345846,8.962490350420582 L-60.58572340715454,8.918582714548657 L-60.51612691488118,8.831945434241078 L-60.43776136071701,8.747052338641911 L-60.35081553414604,8.664107942654214 L-60.25549889528003,8.583312066592992 L-60.15204107025075,8.50485935480056 L-60.04069129802055,8.42893880673127 L-59.9217178299438,8.355733321635277 L-59.79540728352596,8.28541925793822 L-59.66206395193684,8.21816600837833 L-59.52200907094172,8.154135591924485 L-59.3755800450163,8.093482263458325 L-59.2231296345097,8.03635214216073 L-59.06502510581389,7.982882859497911 L-58.90164734658683,7.933203227655162 L-58.733389948160706,7.887432929217011 L-58.56065825734592,7.845682228841403 L-58.38386839991517,7.80805170762247 L-58.20344627811996,7.7746320207818735 L-58.01982654465481,7.745503679272431 L-57.833451555540826,7.720736855820182 L-57.6447703044513,7.700391215872139 L-57.454237341046635,7.684515773857004 L-57.262311675924394,7.6731487751051155 L-57.06945567482255,7.6663176037121 L-56.876133944739955,7.664038716568183 L-56.68281221465736,7.6663176037121 L-56.489956213555516,7.6731487751051155 L-56.298030548433275,7.684515773857004 L-56.10749758502861,7.700391215872139 L-55.918816333939084,7.720736855820182 L-55.7324413448251,7.745503679272431 L-55.54882161135995,7.7746320207818735 L-55.36839948956474,7.80805170762247 L-55.19160963213399,7.845682228841403 L-55.018877941319204,7.887432929217011 L-54.85062054289308,7.933203227655162 L-54.68724278366602,7.982882859497911 L-54.52913825497022,8.036352142160728 L-54.37668784446361,8.093482263458325 L-54.23025881853819,8.154135591924485 L-54.09020393754307,8.21816600837833 L-53.95686060595395,8.28541925793822 L-53.83055005953611,8.355733321635277 L-53.71157659145936,8.42893880673127 L-53.60022681922916,8.50485935480056 L-53.49676899419988,8.583312066592992 L-53.40145235533387,8.664107942654214 L-53.3145065287629,8.747052338641911 L-53.23614097459873,8.831945434241078 L-53.16654448232537,8.918582714548657 L-53.13508786602145,8.962490350420582 L-53.10588471598862,9.00675546276786 L-53.0789526231125,9.051351387941994 L-53.05430781027877,9.096251263025206 L-53.03196512260116,9.141428042011661 L-53.01193801847927,9.186854512098968 L-52.99423856149176,9.23250331008015 L-52.978877413129716,9.278346938826221 L-52.965863826374495,9.324357783849429 L-52.95520564012416,9.370508129937189 L-52.94690927447159,9.416770177846688 L-52.9409797268372,9.463116061050117 L-52.93742056895878,9.509517862520418 L-52.93623394473995,9.55594763154745 " />
			<path d="M-52.93623394473995,9.55594763154746 L-52.93890368170032,9.625583544765846 L-52.94690927447159,9.695125085248229 L-52.96023987362767,9.76447800815545 L-52.978877413129716,9.833548324268698 L-53.002796634809705,9.902242427366598 L-53.03196512260116,9.970467221083258 L-53.06634334647034,10.038130245075314 L-53.10588471598862,10.10513980032706 L-53.15053564347324,10.171405073423758 L-53.20023561661097,10.236836259624795 L-53.254917280466294,10.301344684569829 L-53.3145065287629,10.364842924453008 L-53.37892260431475,10.427244924502418 L-53.44807820847074,10.488466115604156 L-53.52187961942452,10.548423528913004 L-53.60022681922916,10.607035908294359 L-53.68301362934456,10.664223820445054 L-53.77012785453389,10.719909762543827 L-53.86145143491403,10.774018267285518 L-53.95686060595395,10.826476005156698 L-54.05622606620424,10.877211883814084 L-54.159413152530384,10.926157144431075 L-54.26628202261244,10.973245454881823 L-54.3766878444636,11.018412999636594 L-54.49048099271105,11.061598566246516 L-54.60750725137278,11.102743628300605 L-54.72760802285593,11.141792424742535 L-54.85062054289308,11.178692035439756 L-54.97637810112542,11.213392452902484 L-55.10471026703377,11.24584665005539 L-55.23544312091127,11.276010643970146 L-55.36839948956474,11.303843555472449 L-55.503399186425206,11.329307664542725 L-55.64025925574236,11.352368461435477 L-55.77879422053178,11.372994693447945 L-55.918816333939084,11.391158407274736 L-56.06013583368023,11.406834986891008 L-56.20256119921324,11.42000318691286 L-56.34589941129273,11.430645161389736 L-56.489956213555516,11.438746487989803 L-56.63453637578288,11.444296187545543 L-56.77944395848253,11.447286738933059 L-56.92448257843186,11.447714089264931 L-57.06945567482255,11.445577659382819 L-57.214166775645815,11.440880344642348 L-57.35841976395734,11.433628510989243 L-57.50201914366103,11.423831986331994 L-57.64477030445129,11.411504047222781 L-57.78647978555497,11.39666140086467 L-57.926955537915305,11.379324162469505 L-58.066007184462784,11.359515827997152 L-58.20344627811996,11.337263242313046 L-58.3390865571908,11.312596562807201 L-58.47274419778821,11.285549218523997 L-58.6042380629579,11.25615786485809 L-58.733389948160706,11.224462333877907 L-58.86002482278091,11.190505580343997 L-58.98397106733313,11.154333623495406 L-59.10506070604631,11.115995484682996 L-59.22312963450969,11.07554312093419 L-59.33801784207214,11.033031354539219 L-59.44956962869354,10.988517798754252 L-59.55763381595426,10.942062779722146 L-59.66206395193681,10.893729254716602 " />
			<path d="M-66.09122022784116,13.980959406288544 L-66.22456355943028,13.913706156728653 L-66.35087410584813,13.843392093031596 L-66.46984757392488,13.770186607935603 L-66.58119734615508,13.694266059866314 L-66.68465517118435,13.615813348073882 L-66.77997181005037,13.53501747201266 L-66.86691763662134,13.452073076024963 L-66.9452831907855,13.367179980425798 L-67.01487968305887,13.280542700118218 L-67.04633629936278,13.236635064246293 L-67.0755394493956,13.192369951899016 L-67.10247154227173,13.147774026724882 L-67.12711635510547,13.10287415164167 L-67.14945904278308,13.057697372655213 L-67.16948614690497,13.012270902567906 L-67.18718560389247,12.966622104586724 L-67.20254675225452,12.920778475840653 L-67.21556033900974,12.874767630817443 L-67.22621852526007,12.828617284729685 L-67.23451489091265,12.782355236820186 L-67.24044443854704,12.736009353616756 L-67.24400359642546,12.689607552146455 L-67.24519022064428,12.643177783119432 " />
			<path d="M-67.24519022064428,12.643177783119414 L-67.24400359642546,12.596748014092373 L-67.24044443854704,12.550346212622072 L-67.23451489091265,12.504000329418643 L-67.22621852526007,12.457738281509144 L-67.21556033900974,12.411587935421384 L-67.20254675225452,12.365577090398176 L-67.18718560389247,12.319733461652104 L-67.16948614690497,12.274084663670923 L-67.14945904278308,12.228658193583616 L-67.12711635510547,12.18348141459716 L-67.10247154227173,12.138581539513948 L-67.0755394493956,12.093985614339815 L-67.04633629936279,12.049720501992537 L-67.01487968305887,12.005812866120612 L-66.9452831907855,11.919175585813033 L-66.86691763662134,11.834282490213866 L-66.77997181005037,11.751338094226169 L-66.68465517118435,11.670542218164947 L-66.58119734615508,11.592089506372515 L-66.46984757392488,11.516168958303226 L-66.35087410584813,11.442963473207232 L-66.22456355943028,11.372649409510174 L-66.09122022784116,11.305396159950284 L-65.95116534684605,11.24136574349644 L-65.80473632092063,11.18071241503028 L-65.65228591041402,11.123582293732685 L-65.4941813817182,11.070113011069866 L-65.33080362249116,11.020433379227118 L-65.16254622406503,10.974663080788966 L-64.98981453325025,10.932912380413358 L-64.81302467581949,10.895281859194425 L-64.63260255402429,10.861862172353828 L-64.44898282055914,10.832733830844386 L-64.26260783144515,10.807967007392136 L-64.07392658035562,10.787621367444093 L-63.88339361695096,10.771745925428958 L-63.69146795182872,10.76037892667707 L-63.498611950726875,10.753547755284055 L-63.30529022064428,10.751268868140137 L-63.11196849056169,10.753547755284055 L-62.91911248945984,10.76037892667707 L-62.7271868243376,10.771745925428958 L-62.53665386093294,10.787621367444093 L-62.34797260984341,10.807967007392136 L-62.161597620729424,10.832733830844386 L-61.977977887264274,10.861862172353828 L-61.79755576546906,10.895281859194425 L-61.62076590803831,10.932912380413358 L-61.44803421722353,10.974663080788966 L-61.27977681879741,11.020433379227116 L-61.11639905957035,11.070113011069866 L-60.95829453087455,11.123582293732683 L-60.80584412036794,11.18071241503028 L-60.659415094442515,11.24136574349644 L-60.5193602134474,11.305396159950284 L-60.386016881858275,11.372649409510174 L-60.259706335440434,11.442963473207232 L-60.14073286736369,11.516168958303226 L-60.02938309513348,11.592089506372515 L-59.92592527010421,11.670542218164947 L-59.8306086312382,11.751338094226169 L-59.743662804667224,11.834282490213866 L-59.66529725050306,11.919175585813033 L-59.5957007582297,12.005812866120612 L-59.564244141925776,12.049720501992537 L-59.53504099189295,12.093985614339815 L-59.508108899016825,12.138581539513948 L-59.4834640861831,12.18348141459716 L-59.46112139850548,12.228658193583616 L-59.441094294383596,12.274084663670923 L-59.42339483739609,12.319733461652104 L-59.40803368903404,12.365577090398176 L-59.39502010227882,12.411587935421384 L-59.384361916028496,12.457738281509144 L-59.37606555037591,12.504000329418643 L-59.370136002741525,12.550346212622072 L-59.366576844863104,12.596748014092373 L-59.36539022064428,12.643177783119405 " />
			<path d="M-59.36539022064428,12.643177783119414 L-59.36805995760464,12.7128136963378 L-59.37606555037591,12.782355236820184 L-59.389396149532,12.851708159727405 L-59.40803368903404,12.920778475840653 L-59.43195291071403,12.989472578938553 L-59.46112139850548,13.057697372655213 L-59.495499622374666,13.125360396647269 L-59.53504099189295,13.192369951899014 L-59.57969191937757,13.258635224995713 L-59.629391892515294,13.32406641119675 L-59.68407355637062,13.388574836141784 L-59.743662804667224,13.452073076024963 L-59.80807888021908,13.514475076074373 L-59.877234484375066,13.575696267176111 L-59.95103589532884,13.635653680484959 L-60.02938309513348,13.694266059866314 L-60.112169905248884,13.751453972017009 L-60.199284130438215,13.807139914115782 L-60.29060771081836,13.861248418857473 L-60.386016881858275,13.913706156728653 L-60.485382342108565,13.964442035386039 L-60.58856942843471,14.01338729600303 L-60.69543829851676,14.060475606453778 L-60.80584412036793,14.105643151208549 L-60.919637268615375,14.148828717818471 L-61.03666352727711,14.18997377987256 L-61.15676429876026,14.22902257631449 L-61.27977681879741,14.26592218701171 L-61.405534377029745,14.30062260447444 L-61.53386654293809,14.333076801627344 L-61.664599396815596,14.3632407955421 L-61.79755576546906,14.391073707044404 L-61.93255546232953,14.41653781611468 L-62.06941553164668,14.439598613007432 L-62.207950496436105,14.4602248450199 L-62.34797260984341,14.47838855884669 L-62.489292109584554,14.494065138462963 L-62.63171747511757,14.507233338484815 L-62.77505568719705,14.51787531296169 L-62.91911248945984,14.525976639561758 L-63.063692651687205,14.531526339117498 L-63.20860023438686,14.534516890505014 L-63.35363885433619,14.534944240836886 L-63.498611950726875,14.532807810954774 L-63.64332305155014,14.528110496214303 L-63.78757603986167,14.520858662561198 L-63.931175419565356,14.511062137903949 L-64.07392658035562,14.498734198794736 L-64.21563606145929,14.483891552436624 L-64.35611181381964,14.46655431404146 L-64.49516346036711,14.446745979569107 L-64.63260255402429,14.424493393885001 L-64.76824283309512,14.399826714379156 L-64.90190047369254,14.372779370095952 L-65.03339433886222,14.343388016430044 L-65.16254622406503,14.311692485449862 L-65.28918109868523,14.277735731915952 L-65.41312734323745,14.24156377506736 L-65.53421698195064,14.20322563625495 L-65.65228591041402,14.162773272506145 L-65.76717411797647,14.120261506111174 L-65.87872590459787,14.075747950326207 L-65.98679009185858,14.029292931294101 L-66.09122022784113,13.980959406288557 " />
			<path d="M-54.23136163587702,6.995015486501594 L-54.18415902364412,6.922267808801148 L-54.13089435786426,6.850491838564183 L-54.071654038748036,6.779804003047946 L-54.00653415956805,6.710318964454595 L-53.93564035078668,6.642149433938521 L-53.859087608713764,6.575405988778435 L-53.77700010897194,6.510196893010799 L-53.68951100507229,6.44662792181556 L-53.59676221242706,6.384802189939024 L-53.49890417814975,6.324819984432217 L-53.396095637015975,6.266778601976013 L-53.288503353980985,6.210772191056927 L-53.17630185367153,6.156891599249569 L-53.059673137290744,6.105224225853483 L-52.938806387395395,6.055853880123405 L-52.81389766102429,6.008860645322906 L-52.68514957167565,5.964320748821935 L-52.552770960649255,5.9223064384489845 L-52.4169765582866,5.882885865298432 L-52.2779866356584,5.84612297318317 L-52.13602664726458,5.812077394911825 L-51.99132686532622,5.78080435555884 L-51.844122006262744,5.752354582884292 L-51.694650849960205,5.72677422504878 L-51.543155852448194,5.7041047757568455 L-51.389882752613836,5.684383006950345 L-51.235080173590504,5.667640909160963 L-51.07899921946821,5.653905639618616 L-50.9218930679795,5.643199478199912 L-50.7640165598218,5.635539791288132 L-50.605625785282264,5.6309390036033555 L-50.44697766883562,5.629404578048409 L-50.28832955238898,5.6309390036033555 L-50.129938777849446,5.635539791288132 L-49.97206226969175,5.643199478199912 L-49.814956118203035,5.653905639618616 L-49.65887516408074,5.667640909160963 L-49.50407258505741,5.684383006950345 L-49.35079948522305,5.7041047757568455 L-49.199304487711046,5.72677422504878 L-49.0498333314085,5.752354582884292 L-48.90262847234502,5.78080435555884 L-48.757928690406665,5.812077394911825 L-48.61596870201284,5.846122973183169 L-48.476978779384645,5.882885865298432 L-48.34118437702199,5.9223064384489845 L-48.20880576599559,5.964320748821935 L-48.08005767664695,6.008860645322906 L-47.95514895027585,6.055853880123405 L-47.8342822003805,6.105224225853483 L-47.71765348399971,6.156891599249569 L-47.60545198369026,6.210772191056927 L-47.49785970065527,6.266778601976014 L-47.39505115952149,6.324819984432217 L-47.297193125244185,6.384802189939024 L-47.20444433259895,6.44662792181556 L-47.116955228699304,6.5101968930108 L-47.03486772895748,6.575405988778435 L-46.95831498688457,6.642149433938521 L-46.887421178103196,6.710318964454595 L-46.82230129892321,6.779804003047946 L-46.76306097980699,6.850491838564183 L-46.70979631402713,6.922267808801148 L-46.66259370179423,6.995015486501586 " />
			<path d="M-60.660517911781355,10.082245638073552 L-60.61331529954845,10.009497960373105 L-60.56005063376858,9.937721990136142 L-60.50081031465237,9.867034154619903 L-60.43569043547238,9.797549116026552 L-60.36479662669101,9.729379585510479 L-60.2882438846181,9.662636140350392 L-60.20615638487627,9.597427044582757 L-60.118667280976624,9.533858073387517 L-60.02591848833139,9.472032341510982 L-59.92806045405408,9.412050136004176 L-59.8252519129203,9.354008753547971 L-59.71765962988532,9.298002342628884 L-59.60545812957586,9.244121750821527 L-59.48882941319508,9.192454377425442 L-59.36796266329973,9.143084031695363 L-59.243053936928625,9.096090796894863 L-59.114305847579985,9.051550900393893 L-58.98192723655359,9.009536590020943 L-58.84613283419093,8.97011601687039 L-58.707142911562734,8.933353124755127 L-58.56518292316891,8.899307546483783 L-58.42048314123055,8.868034507130798 L-58.27327828216708,8.83958473445625 L-58.12380712586453,8.814004376620739 L-57.97231212835253,8.791334927328805 L-57.81903902851817,8.771613158522303 L-57.66423644949484,8.754871060732922 L-57.50815549537254,8.741135791190574 L-57.35104934388383,8.73042962977187 L-57.19317283572613,8.72276994286009 L-57.0347820611866,8.718169155175314 L-56.876133944739955,8.716634729620367 L-56.71748582829331,8.718169155175314 L-56.55909505375377,8.72276994286009 L-56.40121854559608,8.73042962977187 L-56.24411239410737,8.741135791190574 L-56.08803143998507,8.754871060732922 L-55.93322886096174,8.771613158522303 L-55.779955761127376,8.791334927328805 L-55.62846076361537,8.814004376620739 L-55.47898960731283,8.83958473445625 L-55.331784748249355,8.8680345071308 L-55.187084966311,8.899307546483783 L-55.045124977917176,8.933353124755127 L-54.90613505528898,8.97011601687039 L-54.77034065292632,9.009536590020943 L-54.637962041899925,9.051550900393893 L-54.509213952551285,9.096090796894863 L-54.38430522618018,9.143084031695363 L-54.26343847628483,9.192454377425442 L-54.146809759904045,9.244121750821527 L-54.03460825959459,9.298002342628886 L-53.9270159765596,9.354008753547973 L-53.824207435425826,9.412050136004176 L-53.72634940114852,9.472032341510982 L-53.633600608503286,9.533858073387519 L-53.54611150460364,9.597427044582759 L-53.46402400486181,9.662636140350394 L-53.3874712627889,9.729379585510479 L-53.31657745400753,9.797549116026554 L-53.25145757482754,9.867034154619905 L-53.19221725571132,9.937721990136142 L-53.13895258993146,10.009497960373105 L-53.09174997769856,10.082245638073545 " />
			<path d="M-67.08967418768569,13.16947578964551 L-67.04247157545278,13.096728111945064 L-66.98920690967292,13.024952141708098 L-66.9299665905567,12.954264306191861 L-66.8648467113767,12.88477926759851 L-66.79395290259534,12.816609737082436 L-66.71740016052243,12.74986629192235 L-66.6353126607806,12.684657196154713 L-66.54782355688096,12.621088224959474 L-66.45507476423572,12.559262493082938 L-66.35721672995841,12.499280287576132 L-66.25440818882463,12.441238905119928 L-66.14681590578965,12.38523249420084 L-66.03461440548018,12.331351902393484 L-65.91798568909941,12.279684528997398 L-65.79711893920405,12.23031418326732 L-65.67221021283295,12.18332094846682 L-65.54346212348432,12.138781051965848 L-65.41108351245792,12.096766741592898 L-65.27528911009526,12.057346168442347 L-65.13629918746706,12.020583276327084 L-64.99433919907324,11.98653769805574 L-64.84963941713488,11.955264658702754 L-64.7024345580714,11.926814886028206 L-64.55296340176886,11.901234528192694 L-64.40146840425686,11.87856507890076 L-64.2481953044225,11.858843310094258 L-64.09339272539917,11.842101212304877 L-63.937311771276875,11.82836594276253 L-63.78020561978816,11.817659781343824 L-63.622329111630464,11.810000094432045 L-63.46393833709092,11.805399306747269 L-63.30529022064428,11.803864881192322 L-63.146642104197646,11.805399306747269 L-62.988251329658105,11.810000094432045 L-62.830374821500406,11.817659781343824 L-62.673268670011694,11.82836594276253 L-62.5171877158894,11.842101212304875 L-62.362385136866074,11.858843310094258 L-62.20911203703171,11.878565078900758 L-62.057617039519705,11.901234528192694 L-61.90814588321716,11.926814886028204 L-61.76094102415369,11.955264658702752 L-61.616241242215324,11.986537698055738 L-61.4742812538215,12.020583276327082 L-61.335291331193304,12.057346168442345 L-61.19949692883065,12.096766741592898 L-61.06711831780425,12.138781051965847 L-60.93837022845561,12.183320948466818 L-60.81346150208451,12.230314183267318 L-60.692594752189166,12.279684528997397 L-60.57596603580838,12.33135190239348 L-60.46376453549892,12.385232494200839 L-60.356172252463935,12.441238905119926 L-60.25336371133015,12.49928028757613 L-60.155505677052844,12.559262493082937 L-60.06275688440761,12.621088224959472 L-59.97526778050796,12.684657196154712 L-59.89318028076614,12.749866291922347 L-59.816627538693226,12.816609737082434 L-59.74573372991186,12.884779267598507 L-59.680613850731866,12.954264306191858 L-59.621373531615646,13.024952141708097 L-59.56810886583578,13.09672811194506 L-59.52090625360289,13.1694757896455 " />
			<path d="M-53.25143387369959,27.19323227845398 L-53.30468750839109,27.166314737629698 L-53.35785280474331,27.136750717562595 L-53.41084157095461,27.104589259720925 L-53.463565908055564,27.069883714261746 " />
			<path d="M-54.19048044478596,26.249131502756335 L-54.25383710983222,26.13152510051529 L-54.31194625185312,26.0109839560181 L-54.364503672847576,25.888139095191708 L-54.41123423775326,25.76363360378494 L-54.45189331476286,25.638119260851756 L-54.48626805595739,25.51225312672558 L-54.51417851155275,25.3866941033464 L-54.53547857192649,25.262099484947196 " />
			<path d="M51.95612980708048,-25.96923682024026 L-53.46356590805558,24.65246985705318 " />
			<path d="M53.25143387369959,-23.94860506822062 L-53.25143387369959,27.19323227845398 " />
			<path d="M-53.25143387369958,27.193232278453976 L-53.25143387369958,25.794595326110894 " />
			<path d="M-54.44791747303231,25.220053335653255 L-53.25143387369959,25.794595326110894 " />
			<path d="M53.25143387369959,-25.34724202056372 L-53.25143387369958,25.7945953261109 " />
			<path d="M51.9561298070805,-25.969236820240262 L53.2514338736996,-25.347242020563726 " />
			<path d="M53.25143387369958,-23.9486050682206 L53.25143387369958,-25.347242020563712 " />
			<path d="M-105.25637991352355,7.996192750228012 L-105.25637991352355,4.303335071103264 " />
			<path d="M-103.65831858804194,4.623358213781229 L-103.65831858804194,0.9305005346564812 " />
			<path d="M-107.01373922640425,5.958910144320562 L-107.01373922640425,2.2660524651958145 " />
			<path d="M-105.41567790092266,2.586075607873779 L-105.41567790092266,-1.1067820712509686 " />

       </g>
    </g>
    
</svg>
