<?xml version="1.0" encoding="UTF-8" standalone="no"?>
<svg
   xmlns:svg="http://www.w3.org/2000/svg"
   xmlns="http://www.w3.org/2000/svg"
   width="900.0"
   height="600.0"

>
    <g transform="scale(4.277137581492972, -4.277137581492972)   translate(112.93278474719554,-40.526717152598316)" stroke-width="0.4"  fill="none">
       <!-- hidden lines -->
       <g  stroke="rgb(170,170,170)" fill="none" stroke-dasharray="0.4,0.4" >

       </g>

       <!-- solid lines -->
       <g  stroke="rgb(40,40,40)" fill="none">
			<path d="M54.2350901170082,-26.021333561911696 L54.18942280405657,-26.04326264551695 " />
			<path d="M54.2350901170082,-20.91185708188755 L54.2350901170082,-26.021333561911696 " />
			<path d="M-101.82337649086284,3.213671832860265 L-101.92621830145237,3.163060823431488 L-102.02644255587332,3.1112531173194267 L-102.12398888278247,3.0582799215490315 L-102.21879852391999,3.0041731451926363 L-102.3108143695032,2.9489653801491365 L-102.39998099262743,2.8926898815118434 L-102.48624468265307,2.8353805475368583 L-102.56955347755884,2.777071899224034 L-102.64985719524181,2.717799059522815 L-102.7271074637452,2.657597732175481 L-102.80125775039583,2.596504180210555 L-102.87226338983369,2.5345552040993042 L-102.94008161091665,2.471788119588518 L-103.00467156248422,2.4082407352228916 L-103.06599433796475,2.3439513295705785 L-103.12401299881128,2.278958628165608 L-103.178692596752,2.2133017801810717 L-103.2300001948417,2.1470203348471286 L-103.27790488730179,2.0801542176280248 L-103.32237781813681,2.012743706172488 L-103.36339219851621,1.9448294060519773 L-103.40092332291083,1.8764522263014065 L-103.43494858397473,1.807653354777067 L-103.46544748616294,1.738474233346615 L-103.49240165807721,1.6689565329260234 L-103.51579486353225,1.5991421283785887 L-103.53561301133583,1.529073073291087 L-103.55184416377675,1.4587915746422497 L-103.56447854381571,1.3883399673788681 L-103.5735085409746,1.3177606889148024 L-103.5789287159208,1.2470962535682704 L-103.58073580374356,1.1763892269528367 " />
			<path d="M-103.58073580374356,1.1763892269528105 L-103.58056200927051,1.1544601433475143 " />
			<path d="M-54.2350901170082,26.065191729122205 L-101.82337649086284,3.213671832860264 " />
			<path d="M-52.46732316404183,25.216323976660775 L-54.2350901170082,26.065191729122212 " />
			<path d="M-52.46732316404183,25.216323976660767 L-52.512990476993465,25.194394893055513 " />
			<path d="M52.46732316404183,-25.17246580945026 L51.6909788438641,-25.545260230739572 " />
			<path d="M54.2350901170082,-26.021333561911696 L52.46732316404183,-25.17246580945026 " />
			<path d="M-52.46732316404183,25.91805465202889 L-52.46732316404183,25.216323976660767 " />
			<path d="M-50.98098470998771,25.204326645759313 L-52.46732316404183,25.91805465202889 " />
			<path d="M-50.98098470998771,25.20432664575931 L-50.98098470998771,26.801904244569258 " />
			<path d="M50.98098470998771,-22.159429529002594 L-50.98098470998772,26.801904244569265 " />
			<path d="M50.98098470998771,-23.757007127812557 L50.98098470998771,-22.159429529002594 " />
			<path d="M52.46732316404183,-24.470735134082137 L50.9809847099877,-23.757007127812557 " />
			<path d="M52.46732316404183,-24.470735134082137 L52.46732316404183,-25.17246580945026 " />
			<path d="M54.2350901170082,-20.91185708188755 L-54.2350901170082,31.174668209146358 " />
			<path d="M-54.2350901170082,31.17466820914635 L-54.2350901170082,26.065191729122205 " />
			<path d="M-54.2350901170082,31.17466820914635 L-101.82337649086284,8.32314831288441 " />
			<path d="M-101.82337649086284,8.32314831288441 L-101.92621830145237,8.272537303455634 L-102.02644255587332,8.220729597343572 L-102.12398888278247,8.167756401573177 L-102.21879852391999,8.113649625216782 L-102.3108143695032,8.058441860173282 L-102.39998099262743,8.00216636153599 L-102.48624468265307,7.944857027561004 L-102.56955347755884,7.886548379248181 L-102.64985719524181,7.827275539546961 L-102.7271074637452,7.767074212199628 L-102.80125775039583,7.705980660234701 L-102.87226338983369,7.64403168412345 L-102.94008161091665,7.5812645996126635 L-103.00467156248422,7.517717215247037 L-103.06599433796475,7.453427809594725 L-103.12401299881128,7.3884351081897535 L-103.178692596752,7.322778260205218 L-103.2300001948417,7.256496814871275 L-103.27790488730179,7.189630697652171 L-103.32237781813681,7.122220186196634 L-103.36339219851621,7.054305886076123 L-103.40092332291083,6.985928706325552 L-103.43494858397473,6.917129834801213 L-103.46544748616294,6.847950713370761 L-103.49240165807721,6.7784330129501695 L-103.51579486353225,6.708618608402735 L-103.53561301133583,6.638549553315233 L-103.55184416377675,6.568268054666396 L-103.56447854381571,6.4978164474030145 L-103.5735085409746,6.427237168938948 L-103.5789287159208,6.356572733592416 L-103.58073580374356,6.285865706976983 " />
			<path d="M52.46732316404183,-24.470735134082137 L49.29682429506189,-25.993183692460487 " />
			<path d="M-52.46732316404183,24.490598639489733 L-50.98098470998771,25.20432664575931 " />
			<path d="M50.76885267563174,-23.858871258107932 L50.98098470998771,-23.757007127812557 " />
			<path d="M50.98098470998771,-22.159429529002594 L50.91780777016799,-22.191089970724782 L50.85470286665117,-22.2253610589379 L50.791741953602134,-22.262203716686045 L50.728996821003385,-22.30157593483011 " />
			<path d="M54.2350901170082,-31.17466820914635 L6.646803743153548,-54.026188105408295 " />
			<path d="M54.2350901170082,-26.065191729122205 L54.2350901170082,-31.17466820914635 " />
			<path d="M6.64680374315355,-54.026188105408295 L6.541406324456665,-54.075571931974174 L6.433516785116375,-54.123698828706615 L6.323200113756926,-54.17053980576261 L6.210522761016137,-54.21606664788907 L6.095552599518026,-54.260251931418665 L5.978358882988864,-54.303069040788785 L5.859012204541337,-54.34449218457378 L5.737584454151878,-54.38449641102075 L5.488779521193594,-54.46015259291787 L5.232543476990251,-54.52985532411128 L4.969493616615957,-54.59343668461628 L4.700263650224803,-54.65074350136635 L4.425502176387584,-54.70163771722046 L4.145871119561038,-54.74599672355479 L3.8620441354538477,-54.78371365563771 L3.5747049881310335,-54.81469765007621 L3.2845459027664345,-54.838874063713824 L2.9922658980116283,-54.85618465345247 L2.698569101998773,-54.86658771656527 L2.4041630560342644,-54.87005819116196 L2.109757010069756,-54.86658771656527 L1.8160602140569,-54.85618465345247 L1.5237802093020942,-54.838874063713824 L1.2336211239374948,-54.81469765007621 L0.9462819766146806,-54.78371365563771 L0.6624549925074907,-54.74599672355479 L0.3828239356809444,-54.70163771722046 L0.10806246184372537,-54.65074350136635 L-0.1611675045474299,-54.59343668461628 L-0.42421736492172224,-54.52985532411128 L-0.6804534091250654,-54.46015259291788 L-0.9292583420833478,-54.38449641102075 L-1.0506860924728052,-54.34449218457378 L-1.1700327709203338,-54.303069040788785 L-1.2872264874494945,-54.260251931418665 L-1.4021966489476076,-54.21606664788907 L-1.5148740016883973,-54.17053980576261 L-1.6251906730478467,-54.123698828706615 L-1.7330802123881375,-54.075571931974174 L-1.8384776310850013,-54.0261881054083 " />
			<path d="M54.2350901170082,-31.17466820914635 L-54.2350901170082,20.911857081887558 " />
			<path d="M-1.8384776310850217,-54.02618810540829 L-101.82337649086286,-6.0142280261892935 " />
			<path d="M-54.2350901170082,20.91185708188755 L-101.82337649086284,-1.9396628143743904 " />
			<path d="M-101.82337649086284,-1.9396628143743895 L-101.92621830145237,-1.9902738238031659 L-102.02644255587332,-2.0420815299152277 L-102.12398888278247,-2.095054725685623 L-102.21879852391999,-2.1491615020420176 L-102.3108143695032,-2.2043692670855175 L-102.39998099262743,-2.2606447657228106 L-102.48624468265307,-2.317954099697796 L-102.56955347755884,-2.3762627480106198 L-102.64985719524181,-2.435535587711839 L-102.7271074637452,-2.495736915059173 L-102.80125775039583,-2.556830467024099 L-102.87226338983369,-2.6187794431353497 L-102.94008161091665,-2.6815465276461365 L-103.00467156248422,-2.7450939120117623 L-103.06599433796475,-2.8093833176640755 L-103.12401299881128,-2.8743760190690466 L-103.178692596752,-2.9400328670535822 L-103.2300001948417,-3.0063143123875258 L-103.27790488730179,-3.0731804296066296 L-103.32237781813681,-3.1405909410621664 L-103.36339219851621,-3.208505241182677 L-103.40092332291083,-3.276882420933248 L-103.43494858397473,-3.345681292457587 L-103.46544748616294,-3.4148604138880394 L-103.49240165807721,-3.484378114308631 L-103.51579486353225,-3.5541925188560652 L-103.53561301133583,-3.624261573943567 L-103.55184416377675,-3.6945430725924044 L-103.56447854381571,-3.764994679855786 L-103.5735085409746,-3.8355739583198516 L-103.5789287159208,-3.9062383936663836 L-103.58073580374356,-3.9769454202818175 " />
			<path d="M-103.58073580374356,-3.9769454202818437 L-103.5789287159208,-4.047652446897303 L-103.5735085409746,-4.118316882243835 L-103.56447854381571,-4.188896160707902 L-103.55184416377675,-4.259347767971283 L-103.53561301133583,-4.329629266620121 L-103.51579486353225,-4.399698321707623 L-103.49240165807721,-4.469512726255055 L-103.46544748616294,-4.539030426675647 L-103.43494858397473,-4.6082095481061 L-103.40092332291083,-4.677008419630436 L-103.36339219851621,-4.745385599381008 L-103.32237781813681,-4.813299899501518 L-103.27790488730179,-4.880710410957056 L-103.2300001948417,-4.9475765281761594 L-103.178692596752,-5.0138579735101025 L-103.12401299881128,-5.079514821494639 L-103.06599433796475,-5.144507522899611 L-103.00467156248422,-5.208796928551924 L-102.94008161091665,-5.27234431291755 L-102.87226338983369,-5.335111397428337 L-102.80125775039583,-5.3970603735395875 L-102.7271074637452,-5.458153925504514 L-102.64985719524181,-5.518355252851848 L-102.56955347755884,-5.577628092553068 L-102.48624468265307,-5.635936740865892 L-102.39998099262743,-5.693246074840877 L-102.3108143695032,-5.74952157347817 L-102.21879852391999,-5.80472933852167 L-102.12398888278247,-5.858836114878065 L-102.02644255587332,-5.9118093106484615 L-101.92621830145237,-5.963617016760521 L-101.82337649086286,-6.014228026189295 " />
			<path d="M-32.541054070204915,6.419986811865861 L-54.2350901170082,-3.997318246340919 " />
			<path d="M-32.541054070204915,6.419986811865861 L-54.2350901170082,16.83729187007264 " />
			<path d="M-54.2350901170082,16.837291870072644 L-75.92912616381147,6.419986811865863 " />
			<path d="M-54.2350901170082,-3.997318246340919 L-75.92912616381147,6.419986811865861 " />
			<path d="M54.2350901170082,-26.065191729122205 L52.46732316404183,-25.216323976660767 " />
			<path d="M52.46732316404183,-25.216323976660767 L52.46732316404183,-25.91805465202889 " />
			<path d="M52.46732316404183,-25.91805465202889 L50.9809847099877,-25.20432664575931 " />
			<path d="M50.98098470998771,-26.801904244569254 L50.98098470998771,-25.20432664575931 " />
			<path d="M50.98098470998771,-26.801904244569258 L-50.98098470998772,22.1594295290026 " />
			<path d="M-50.98098470998771,22.159429529002598 L-50.98098470998771,23.757007127812557 " />
			<path d="M-50.98098470998771,23.75700712781256 L-52.46732316404183,24.470735134082137 " />
			<path d="M-52.46732316404183,25.17246580945026 L-52.46732316404183,24.470735134082137 " />
			<path d="M-52.46732316404183,25.172465809450266 L-54.2350901170082,26.021333561911703 " />
			<path d="M-54.2350901170082,26.021333561911696 L-54.2350901170082,20.91185708188755 " />
			<path d="M-101.82337649086284,3.169813665649757 L-101.92621830145237,3.1192026562209803 L-102.02644255587332,3.067394950108919 L-102.12398888278247,3.0144217543385237 L-102.21879852391999,2.9603149779821285 L-102.3108143695032,2.9051072129386286 L-102.39998099262743,2.8488317143013355 L-102.48624468265307,2.7915223803263505 L-102.56955347755884,2.7332137320135264 L-102.64985719524181,2.673940892312307 L-102.7271074637452,2.6137395649649733 L-102.80125775039583,2.552646013000047 L-102.87226338983369,2.4906970368887964 L-102.94008161091665,2.42792995237801 L-103.00467156248422,2.364382568012384 L-103.06599433796475,2.3000931623600707 L-103.12401299881128,2.2351004609551 L-103.178692596752,2.169443612970564 L-103.2300001948417,2.103162167636621 L-103.27790488730179,2.036296050417517 L-103.32237781813681,1.96888553896198 L-103.36339219851621,1.9009712388414695 L-103.40092332291083,1.8325940590908987 L-103.43494858397473,1.7637951875665592 L-103.46544748616294,1.6946160661361072 L-103.49240165807721,1.6250983657155156 L-103.51579486353225,1.5552839611680809 L-103.53561301133583,1.4852149060805793 L-103.55184416377675,1.414933407431742 L-103.56447854381571,1.3444818001683603 L-103.5735085409746,1.2739025217042945 L-103.5789287159208,1.2032380863577625 L-103.58073580374356,1.1325310597423288 " />
			<path d="M-54.2350901170082,26.021333561911696 L-101.82337649086284,3.1698136656497553 " />
			<path d="M52.46732316404183,-25.216323976660767 L51.73664615681573,-25.567189314344827 " />
			<path d="M-54.2350901170082,-3.471020239814827 L-54.2350901170082,-3.997318246340919 " />
			<path d="M-33.08906182562449,6.6831358151289075 L-54.2350901170082,-3.471020239814827 " />
			<path d="M-54.2350901170082,-3.471020239814827 L-75.3811184083919,6.683135815128908 " />
			<path d="M49.317507168411595,-26.003115445164283 L50.98098470998771,-25.20432664575931 " />
			<path d="M-50.54710398905164,5.175342958496804 L-50.68208877133294,5.107261824319624 L-50.80995419515916,5.036082197514543 L-50.93039222152463,4.96197555603713 L-51.04311270467469,4.885120429277681 L-51.1478440910923,4.805701967968273 L-51.2443340736942,4.723911498138435 L-51.33235019966076,4.639946060193988 L-51.41168043043523,4.554007934229443 L-51.44802778183969,4.510363638812522 L-51.482133652543176,4.466304152717538 L-51.51397749844448,4.421856015731426 L-51.54354013800156,4.377046001749882 L-51.57080376378575,4.331901102649775 L-51.595751953208335,4.286448512030246 L-51.61836967841289,4.2407156088323 L-51.638643315327464,4.194729940846764 L-51.656560651871274,4.148519208120516 L-51.67211089531075,4.102111246271018 L-51.685284678760716,4.055534009719186 L-51.69607406682661,4.008815554850682 L-51.70447256038451,3.9619840231158037 L-51.71047510049593,3.9150676240781235 L-51.71407807145516,3.8680946184221057 L-51.71527930296722,3.8210933009299395 " />
			<path d="M-51.71527930296722,3.821093300929922 L-51.71407807145516,3.7740919834377387 L-51.71047510049593,3.7271189777817204 L-51.70447256038451,3.6802025787440407 L-51.69607406682661,3.633371047009162 L-51.685284678760716,3.586652592140658 L-51.67211089531075,3.540075355588826 L-51.656560651871274,3.4936673937393294 L-51.638643315327464,3.4474566610130815 L-51.61836967841289,3.4014709930275453 L-51.595751953208335,3.3557380898296008 L-51.570803763785754,3.310285499210071 L-51.54354013800156,3.2651406001099637 L-51.51397749844449,3.2203305861284197 L-51.482133652543176,3.175882449142307 L-51.44802778183969,3.1318229630473238 L-51.41168043043523,3.088178667630403 L-51.33235019966076,3.0022405416658575 L-51.2443340736942,2.9182751037214096 L-51.1478440910923,2.836484633891572 L-51.04311270467469,2.7570661725821637 L-50.93039222152463,2.6802110458227144 L-50.80995419515916,2.606104404345301 L-50.682088771332936,2.534924777540219 L-50.54710398905164,2.4668436433630405 L-50.40532503847907,2.402025015229201 L-50.2570934775255,2.3406250468913163 L-50.10276640900484,2.282791656251115 L-49.942715620342604,2.228664169012255 L-49.77732668790747,2.178372983032504 L-49.60699804812403,2.1320392541838733 L-49.432140037604555,2.0897746044775154 L-49.25317390461215,2.05168085315652 L-49.07053079423675,2.0178497714044363 L-48.884650709728916,1.9883628612604582 L-48.6959814524934,1.9632911592738718 L-48.50497754329635,1.9426950653707835 L-48.31209912728499,1.926624197345411 L-48.11781086545764,1.9151172713264695 L-47.9225808152547,1.9082020085066256 L-47.72687930296722,1.9058950683597184 L-47.53117779067975,1.9082020085066256 L-47.3359477404768,1.9151172713264693 L-47.14165947864946,1.926624197345411 L-46.94878106263809,1.9426950653707835 L-46.75777715344104,1.9632911592738718 L-46.56910789620552,1.9883628612604582 L-46.38322781169769,2.0178497714044363 L-46.2005847013223,2.05168085315652 L-46.021618568329885,2.089774604477516 L-45.84676055781041,2.132039254183873 L-45.67643191802698,2.1783729830325034 L-45.51104298559184,2.2286641690122546 L-45.3509921969296,2.2827916562511144 L-45.19666512840894,2.340625046891316 L-45.04843356745537,2.402025015229201 L-44.9066546168828,2.4668436433630405 L-44.771669834601504,2.534924777540219 L-44.64380441077528,2.6061044043453014 L-44.52336638440981,2.6802110458227144 L-44.41064590125975,2.757066172582164 L-44.30591451484214,2.836484633891572 L-44.20942453224024,2.9182751037214096 L-44.12140840627368,3.002240541665857 L-44.042078175499206,3.088178667630403 L-44.00573082409475,3.131822963047324 L-43.971624953391256,3.1758824491423074 L-43.93978110748995,3.2203305861284197 L-43.91021846793288,3.265140600109964 L-43.882954842148685,3.310285499210071 L-43.858006652726104,3.3557380898296008 L-43.83538892752155,3.401470993027545 L-43.815115290606975,3.4474566610130806 L-43.797197954063165,3.4936673937393286 L-43.78164771062369,3.540075355588825 L-43.76847392717372,3.586652592140657 L-43.75768453910783,3.633371047009162 L-43.74928604554993,3.680202578744041 L-43.74328350543851,3.727118977781721 L-43.73968053447928,3.774091983437739 L-43.73847930296722,3.8210933009299133 " />
			<path d="M-43.73847930296722,3.8210933009299217 L-43.741181904275045,3.8915864292530298 L-43.74928604554993,3.9619840231158028 L-43.76278074380982,4.032190677529154 L-43.78164771062369,4.1021112462710185 L-43.80586137689656,4.171650970831456 L-43.83538892752155,4.240715608832299 L-43.87019034585193,4.309211561747327 L-43.91021846793288,4.37704600174988 L-43.95541904641955,4.444126997515984 L-44.00573082409475,4.510363638812519 L-44.061085616886594,4.57566615970157 L-44.12140840627368,4.639946060193986 L-44.186617440952475,4.703116226187303 L-44.256624347629234,4.765091047525453 L-44.33133425078618,4.825786534020289 L-44.41064590125975,4.88512042927768 L-44.49445181345657,4.943012322173905 L-44.582638411021264,4.999383755831293 L-44.675086180758605,5.054158333945398 L-44.7716698346015,5.107261824319624 L-44.87225847940523,5.158622259466994 L-44.9767157943379,5.208170034142697 L-45.084900215626575,5.255837999675266 L-45.19666512840893,5.3015615549685275 L-45.311859065430205,5.345278734050996 L-45.430325912316285,5.3869302900540745 L-45.55190511914473,5.426459775505227 L-45.67643191802697,5.4638136188273405 L-45.80373754640685,5.498941196940577 L-45.93364947577278,5.531794903868328 L-46.0659916454738,5.562330215254306 L-46.20058470132229,5.590505748703324 L-46.33724623866037,5.616283319863987 L-46.47579104956028,5.639627994177307 L-46.616031373823866,5.660508134221096 L-46.75777715344104,5.678895442585972 L-46.900836290162175,5.694765000224882 L-47.04501490583563,5.7080953002241595 L-47.1901176051574,5.718868276950364 L-47.3359477404768,5.727069330533375 L-47.482307678299485,5.732687346652595 L-47.62899906712643,5.735714711599413 L-47.77582310626598,5.7361473225955395 L-47.92258081525469,5.7339845933532185 L-48.06907330352178,5.729229454869781 L-48.21510203993177,5.72188835145547 L-48.36046912183999,5.711971231999908 L-48.50497754329634,5.699491536489061 L-48.64843146203385,5.6844661777909495 L-48.7906364648801,5.666915518734813 L-48.93139983123203,5.646863344514774 L-49.070530794236745,5.624336830455409 L-49.20784079932473,5.599366505182912 L-49.34314375974472,5.5719862092517625 L-49.47625630875428,5.542233049282955 L-49.60699804812403,5.5101473476759715 L-49.73519179261887,5.475772587962616 L-49.86066381012492,5.439155355876797 L-49.98324405709658,5.400345276220101 L-50.102766409004836,5.35939494560873 L-50.219068885474314,5.316359861192957 L-50.331993869804066,5.271298345445664 L-50.4413883225746,5.224271467121937 L-50.54710398905162,5.175342958496817 " />
			<path d="M-57.05531480309262,8.30053447595884 L-57.19029958537392,8.232453341781659 L-57.318165009200136,8.161273714976577 L-57.438603035565606,8.087167073499165 L-57.55132351871567,8.010311946739716 L-57.65605490513328,7.930893485430308 L-57.752544887735176,7.84910301560047 L-57.84056101370174,7.765137577656023 L-57.91989124447621,7.679199451691478 L-57.95623859588067,7.635555156274557 L-57.990344466584155,7.591495670179573 L-58.02218831248546,7.547047533193461 L-58.05175095204254,7.502237519211917 L-58.079014577826726,7.45709262011181 L-58.103962767249314,7.411640029492281 L-58.12658049245387,7.365907126294335 L-58.14685412936844,7.319921458308799 L-58.16477146591225,7.273710725582551 L-58.18032170935173,7.227302763733053 L-58.193495492801695,7.180725527181221 L-58.20428488086759,7.134007072312717 L-58.21268337442549,7.087175540577839 L-58.218685914536906,7.040259141540159 L-58.22228888549614,6.993286135884141 L-58.2234901170082,6.946284818391975 " />
			<path d="M-58.2234901170082,6.946284818391957 L-58.22228888549614,6.899283500899774 L-58.218685914536906,6.8523104952437555 L-58.21268337442549,6.805394096206076 L-58.20428488086759,6.758562564471197 L-58.193495492801695,6.711844109602693 L-58.18032170935173,6.665266873050861 L-58.16477146591225,6.6188589112013645 L-58.14685412936844,6.5726481784751165 L-58.12658049245387,6.52666251048958 L-58.103962767249314,6.480929607291636 L-58.07901457782673,6.435477016672106 L-58.05175095204254,6.390332117571999 L-58.02218831248547,6.345522103590454 L-57.990344466584155,6.301073966604342 L-57.95623859588067,6.257014480509359 L-57.91989124447621,6.2133701850924385 L-57.84056101370174,6.127432059127893 L-57.752544887735176,6.043466621183445 L-57.65605490513328,5.961676151353607 L-57.55132351871567,5.882257690044199 L-57.438603035565606,5.8054025632847495 L-57.318165009200136,5.731295921807336 L-57.190299585373914,5.660116295002254 L-57.05531480309262,5.592035160825075 L-56.91353585252005,5.527216532691236 L-56.76530429156648,5.465816564353352 L-56.61097722304582,5.40798317371315 L-56.45092643438358,5.35385568647429 L-56.28553750194845,5.303564500494539 L-56.115208862165005,5.257230771645908 L-55.94035085164553,5.2149661219395504 L-55.761384718653126,5.176872370618555 L-55.57874160827773,5.143041288866471 L-55.392861523769895,5.113554378722493 L-55.20419226653438,5.088482676735907 L-55.01318835733733,5.067886582832818 L-54.82030994132597,5.0518157148074465 L-54.62602167949862,5.040308788788504 L-54.430791629295676,5.033393525968661 L-54.2350901170082,5.031086585821754 L-54.03938860472073,5.033393525968661 L-53.844158554517776,5.040308788788504 L-53.64987029269044,5.0518157148074465 L-53.45699187667907,5.067886582832818 L-53.26598796748202,5.088482676735907 L-53.0773187102465,5.113554378722493 L-52.891438625738665,5.143041288866471 L-52.70879551536328,5.176872370618555 L-52.52982938237086,5.2149661219395504 L-52.35497137185139,5.257230771645908 L-52.18464273206796,5.303564500494538 L-52.01925379963282,5.35385568647429 L-51.85920301097058,5.407983173713149 L-51.70487594244992,5.465816564353351 L-51.55664438149635,5.527216532691236 L-51.414865430923776,5.592035160825075 L-51.27988064864248,5.660116295002254 L-51.15201522481626,5.7312959218073365 L-51.03157719845079,5.8054025632847495 L-50.91885671530073,5.882257690044199 L-50.814125328883115,5.961676151353608 L-50.71763534628122,6.043466621183445 L-50.62961922031466,6.127432059127892 L-50.550288989540185,6.2133701850924385 L-50.51394163813573,6.257014480509359 L-50.479835767432235,6.301073966604343 L-50.44799192153093,6.345522103590455 L-50.41842928197386,6.390332117571999 L-50.39116565618966,6.435477016672106 L-50.36621746676708,6.480929607291635 L-50.34359974156253,6.52666251048958 L-50.323326104647954,6.572648178475116 L-50.305408768104144,6.618858911201364 L-50.289858524664666,6.66526687305086 L-50.2766847412147,6.711844109602692 L-50.26589535314881,6.758562564471196 L-50.25749685959091,6.805394096206076 L-50.25149431947949,6.852310495243756 L-50.247891348520255,6.899283500899774 L-50.2466901170082,6.946284818391948 " />
			<path d="M-50.2466901170082,6.946284818391957 L-50.249392718316024,7.016777946715065 L-50.25749685959091,7.087175540577838 L-50.2709915578508,7.157382194991189 L-50.289858524664666,7.227302763733054 L-50.31407219093754,7.296842488293491 L-50.34359974156253,7.365907126294334 L-50.37840115989291,7.434403079209362 L-50.41842928197386,7.502237519211915 L-50.46362986046053,7.569318514978019 L-50.51394163813573,7.635555156274554 L-50.56929643092757,7.700857677163605 L-50.62961922031466,7.765137577656021 L-50.69482825499345,7.828307743649338 L-50.76483516167021,7.890282564987488 L-50.839545064827156,7.950978051482324 L-50.91885671530073,8.010311946739716 L-51.00266262749755,8.06820383963594 L-51.09084922506224,8.124575273293328 L-51.18329699479958,8.179349851407434 L-51.279880648642475,8.23245334178166 L-51.38046929344621,8.28381377692903 L-51.48492660837888,8.333361551604732 L-51.593111029667554,8.3810295171373 L-51.70487594244991,8.426753072430563 L-51.820069879471184,8.470470251513031 L-51.93853672635726,8.51212180751611 L-52.060115933185706,8.551651292967263 L-52.18464273206795,8.589005136289376 L-52.31194836044783,8.624132714402613 L-52.44186028981376,8.656986421330362 L-52.57420245951478,8.687521732716341 L-52.70879551536327,8.715697266165359 L-52.84545705270135,8.741474837326022 L-52.98400186360126,8.764819511639342 L-53.124242187864844,8.785699651683132 L-53.26598796748202,8.804086960048007 L-53.409047104203154,8.819956517686917 L-53.55322571987661,8.833286817686194 L-53.698328419198376,8.844059794412399 L-53.844158554517776,8.85226084799541 L-53.99051849234046,8.85787886411463 L-54.13720988116741,8.860906229061449 L-54.28403392030696,8.861338840057575 L-54.43079162929567,8.859176110815254 L-54.57728411756276,8.854420972331816 L-54.72331285397275,8.847079868917506 L-54.86867993588097,8.837162749461944 L-55.01318835733732,8.824683053951096 L-55.15664227607483,8.809657695252985 L-55.29884727892108,8.792107036196848 L-55.43961064527301,8.772054861976809 L-55.578741608277724,8.749528347917444 L-55.71605161336571,8.724558022644947 L-55.8513545737857,8.697177726713797 L-55.98446712279526,8.667424566744991 L-56.115208862165005,8.635338865138007 L-56.24340260665985,8.600964105424652 L-56.3688746241659,8.564346873338831 L-56.491454871137556,8.525536793682136 L-56.610977223045815,8.484586463070766 L-56.72727969951529,8.441551378654992 L-56.840204683845045,8.3964898629077 L-56.94959913661558,8.349462984583973 L-57.0553148030926,8.300534475958852 " />
			<path d="M-63.5635256171336,11.42572599342087 L-63.6985103994149,11.35764485924369 L-63.826375823241115,11.286465232438609 L-63.946813849606585,11.212358590961196 L-64.05953433275664,11.135503464201747 L-64.16426571917427,11.056085002892338 L-64.26075570177616,10.974294533062501 L-64.34877182774272,10.890329095118053 L-64.4281020585172,10.80439096915351 L-64.46444940992164,10.760746673736588 L-64.49855528062514,10.716687187641606 L-64.53039912652645,10.672239050655493 L-64.55996176608352,10.627429036673949 L-64.5872253918677,10.582284137573842 L-64.61217358129029,10.536831546954312 L-64.63479130649485,10.491098643756366 L-64.65506494340941,10.445112975770831 L-64.67298227995323,10.398902243044583 L-64.68853252339271,10.352494281195085 L-64.70170630684267,10.305917044643252 L-64.71249569490857,10.25919858977475 L-64.72089418846646,10.21236705803987 L-64.72689672857788,10.16545065900219 L-64.73049969953712,10.118477653346172 L-64.73170093104918,10.071476335854006 " />
			<path d="M-64.73170093104918,10.071476335853989 L-64.73049969953712,10.024475018361805 L-64.72689672857788,9.977502012705788 L-64.72089418846646,9.930585613668107 L-64.71249569490857,9.883754081933228 L-64.70170630684267,9.837035627064724 L-64.68853252339271,9.790458390512892 L-64.67298227995323,9.744050428663396 L-64.65506494340943,9.697839695937148 L-64.63479130649485,9.651854027951611 L-64.61217358129029,9.606121124753667 L-64.5872253918677,9.560668534134138 L-64.55996176608352,9.51552363503403 L-64.53039912652645,9.470713621052486 L-64.49855528062514,9.426265484066374 L-64.46444940992166,9.38220599797139 L-64.4281020585172,9.33856170255447 L-64.34877182774272,9.252623576589924 L-64.26075570177616,9.168658138645476 L-64.16426571917427,9.08686766881564 L-64.05953433275664,9.00744920750623 L-63.946813849606585,8.930594080746781 L-63.826375823241115,8.856487439269367 L-63.69851039941489,8.785307812464286 L-63.5635256171336,8.717226678287107 L-63.42174666656103,8.652408050153268 L-63.27351510560746,8.591008081815383 L-63.1191880370868,8.533174691175182 L-62.95913724842456,8.479047203936322 L-62.793748315989426,8.42875601795657 L-62.623419676205984,8.38242228910794 L-62.44856166568651,8.340157639401582 L-62.269595532694105,8.302063888080585 L-62.08695242231871,8.268232806328502 L-61.901072337810874,8.238745896184525 L-61.712403080575356,8.213674194197939 L-61.521399171378306,8.19307810029485 L-61.328520755366945,8.177007232269478 L-61.1342324935396,8.165500306250536 L-60.939002443336655,8.158585043430692 L-60.74330093104918,8.156278103283785 L-60.547599418761706,8.158585043430692 L-60.352369368558755,8.165500306250536 L-60.158081106731416,8.177007232269478 L-59.96520269072005,8.19307810029485 L-59.774198781523,8.213674194197939 L-59.58552952428748,8.238745896184525 L-59.399649439779644,8.268232806328502 L-59.217006329404256,8.302063888080585 L-59.03804019641184,8.340157639401582 L-58.86318218589237,8.38242228910794 L-58.692853546108935,8.42875601795657 L-58.5274646136738,8.479047203936322 L-58.36741382501156,8.53317469117518 L-58.213086756490895,8.591008081815383 L-58.064855195537326,8.652408050153268 L-57.923076244964754,8.717226678287107 L-57.78809146268346,8.785307812464286 L-57.66022603885724,8.856487439269367 L-57.53978801249177,8.930594080746781 L-57.427067529341706,9.00744920750623 L-57.322336142924094,9.08686766881564 L-57.2258461603222,9.168658138645476 L-57.13783003435564,9.252623576589924 L-57.058499803581164,9.33856170255447 L-57.022152452176705,9.382205997971392 L-56.98804658147321,9.426265484066374 L-56.95620273557191,9.470713621052486 L-56.926640096014836,9.51552363503403 L-56.89937647023064,9.560668534134138 L-56.87442828080806,9.606121124753667 L-56.85181055560351,9.651854027951611 L-56.83153691868893,9.697839695937148 L-56.81361958214512,9.744050428663396 L-56.798069338705645,9.790458390512892 L-56.78489555525568,9.837035627064724 L-56.774106167189785,9.883754081933228 L-56.76570767363189,9.930585613668107 L-56.75970513352047,9.977502012705788 L-56.756102162561234,10.024475018361805 L-56.75490093104918,10.07147633585398 " />
			<path d="M-56.75490093104918,10.071476335853989 L-56.757603532357,10.141969464177096 L-56.76570767363189,10.21236705803987 L-56.77920237189178,10.28257371245322 L-56.798069338705645,10.352494281195085 L-56.822283004978516,10.422034005755522 L-56.85181055560351,10.491098643756365 L-56.88661197393389,10.559594596671394 L-56.926640096014836,10.627429036673947 L-56.97184067450151,10.69451003244005 L-57.022152452176705,10.760746673736586 L-57.07750724496855,10.826049194625636 L-57.13783003435564,10.890329095118053 L-57.20303906903443,10.95349926111137 L-57.27304597571119,11.015474082449519 L-57.347755878868135,11.076169568944357 L-57.427067529341706,11.135503464201747 L-57.51087344153853,11.193395357097971 L-57.59906003910322,11.24976679075536 L-57.69150780884056,11.304541368869465 L-57.788091462683454,11.357644859243692 L-57.88868010748719,11.409005294391061 L-57.993137422419856,11.458553069066763 L-58.10132184370853,11.506221034599331 L-58.21308675649089,11.551944589892594 L-58.32828069351216,11.595661768975063 L-58.44674754039824,11.637313324978141 L-58.568326747226685,11.676842810429294 L-58.69285354610893,11.714196653751408 L-58.82015917448881,11.749324231864644 L-58.95007110385474,11.782177938792394 L-59.08241327355576,11.812713250178373 L-59.21700632940425,11.84088878362739 L-59.35366786674233,11.866666354788054 L-59.492212677642236,11.890011029101373 L-59.63245300190582,11.910891169145163 L-59.774198781523,11.929278477510039 L-59.91725791824413,11.945148035148948 L-60.061436533917586,11.958478335148225 L-60.206539233239354,11.96925131187443 L-60.352369368558755,11.977452365457442 L-60.49872930638144,11.983070381576661 L-60.64542069520839,11.98609774652348 L-60.79224473434794,11.986530357519607 L-60.93900244333665,11.984367628277285 L-61.08549493160374,11.979612489793848 L-61.23152366801373,11.972271386379537 L-61.37689074992195,11.962354266923976 L-61.5213991713783,11.949874571413128 L-61.664853090115805,11.934849212715017 L-61.80705809296206,11.91729855365888 L-61.947821459313985,11.89724637943884 L-62.0869524223187,11.874719865379475 L-62.224262427406686,11.849749540106979 L-62.35956538782668,11.822369244175828 L-62.49267793683624,11.792616084207022 L-62.623419676205984,11.760530382600038 L-62.75161342070083,11.726155622886683 L-62.877085438206876,11.689538390800863 L-62.999665685178535,11.650728311144167 L-63.11918803708679,11.609777980532797 L-63.23549051355627,11.566742896117024 L-63.34841549788602,11.521681380369731 L-63.45780995065656,11.474654502046004 L-63.56352561713358,11.425725993420883 " />
			<path d="M-51.561730611688326,4.3473913074560135 L-51.5143495948155,4.273467734714025 L-51.460791352939076,4.200523101332993 L-51.40114323758539,4.128676377332081 L-51.33550253264082,4.058044742080558 L-51.26397629568539,3.9887433931825504 L-51.18668118338576,3.920885358593978 L-51.103743261232495,3.854581312278107 L-51.015297797931886,3.789939393700381 L-50.92148904478764,3.727065031456921 L-50.82247000043231,3.6660607713243545 L-50.71840216129213,3.6070261090114215 L-50.609455258192284,3.5500573278851233 L-50.495806979532176,3.495247341936087 L-50.37764268148212,3.442685544239257 L-50.2551550856743,3.3924576611570734 L-50.12854396488082,3.3446456125229185 L-49.99801581719164,3.29932737803288 L-49.863783529223824,3.2565768700637254 L-49.7260660289112,3.2164638131245322 L-49.58508792844102,3.1790536301385712 L-49.44107915791969,3.144407335740922 L-49.294274590365184,3.112581436765841 L-49.144913658637826,3.0836278400861907 L-48.99323996493406,3.0575937679552365 L-48.83950088348019,3.0345216809888824 L-48.68394715707413,3.014449208913968 L-48.52683248813309,2.9974090891955627 L-48.36841312491425,2.983429113643366 L-48.208947443583256,2.972532083084282 L-48.04869552681221,2.964735770175109 L-47.88791873959431,2.9600528904159917 L-47.72687930296722,2.958491081411903 L-47.56583986634013,2.9600528904159917 L-47.40506307912223,2.9647357701751096 L-47.244811162351176,2.972532083084282 L-47.08534548102019,2.983429113643366 L-46.92692611780135,2.997409089195563 L-46.76981144886031,3.014449208913968 L-46.61425772245425,3.034521680988883 L-46.46051864100038,3.057593767955237 L-46.308844947296606,3.083627840086191 L-46.159484015569255,3.1125814367658413 L-46.01267944801475,3.1444073357409223 L-45.86867067749341,3.179053630138572 L-45.72769257702324,3.2164638131245327 L-45.589975076710616,3.256576870063726 L-45.455742788742796,3.2993273780328805 L-45.32521464105362,3.3446456125229194 L-45.198603520260136,3.3924576611570743 L-45.07611592445232,3.442685544239258 L-44.95795162640226,3.4952473419360874 L-44.84430334774215,3.550057327885124 L-44.735356444642306,3.6070261090114224 L-44.63128860550213,3.666060771324356 L-44.53226956114679,3.727065031456922 L-44.438460808002546,3.789939393700383 L-44.350015344701944,3.8545813122781087 L-44.26707742254868,3.9208853585939796 L-44.18978231024905,3.988743393182552 L-44.118256073293615,4.05804474208056 L-44.05261536834905,4.128676377332083 L-43.992967252995356,4.200523101332995 L-43.93940901111894,4.273467734714027 L-43.892027994246114,4.347391307456006 " />
			<path d="M-58.069941425729304,7.472582824918049 L-58.02256040885648,7.39865925217606 L-57.969002166980054,7.325714618795028 L-57.909354051626366,7.253867894794116 L-57.843713346681795,7.183236259542593 L-57.77218710972637,7.113934910644586 L-57.69489199742674,7.046076876056013 L-57.611954075273474,6.979772829740142 L-57.523508611972865,6.915130911162416 L-57.42969985882862,6.852256548918956 L-57.33068081447329,6.7912522887863895 L-57.22661297533311,6.732217626473457 L-57.11766607223326,6.675248845347158 L-57.004017793573155,6.6204388593981225 L-56.8858534955231,6.567877061701292 L-56.76336589971528,6.517649178619108 L-56.6367547789218,6.4698371299849535 L-56.50622663123262,6.424518895494915 L-56.3719943432648,6.38176838752576 L-56.23427684295218,6.341655330586567 L-56.093298742482,6.304245147600606 L-55.94928997196067,6.269598853202957 L-55.80248540440616,6.237772954227876 L-55.653124472678805,6.208819357548226 L-55.50145077897504,6.182785285417271 L-55.34771169752117,6.159713198450918 L-55.19215797111511,6.139640726376003 L-55.03504330217407,6.122600606657597 L-54.87662393895523,6.108620631105401 L-54.717158257624234,6.097723600546317 L-54.55690634085319,6.089927287637144 L-54.39612955363529,6.085244407878027 L-54.2350901170082,6.0836825988739385 L-54.074050680381106,6.085244407878027 L-53.91327389316321,6.089927287637145 L-53.753021976392155,6.097723600546317 L-53.59355629506117,6.108620631105401 L-53.43513693184233,6.122600606657598 L-53.27802226290129,6.139640726376003 L-53.12246853649523,6.159713198450918 L-52.968729455041355,6.182785285417272 L-52.817055761337585,6.208819357548226 L-52.667694829610234,6.237772954227877 L-52.52089026205573,6.269598853202957 L-52.37688149153439,6.304245147600607 L-52.23590339106422,6.341655330586567 L-52.098185890751594,6.381768387525761 L-51.963953602783775,6.4245188954949155 L-51.8334254550946,6.469837129984954 L-51.706814334301114,6.517649178619109 L-51.584326738493296,6.567877061701293 L-51.46616244044324,6.6204388593981225 L-51.35251416178313,6.675248845347159 L-51.243567258683285,6.7322176264734575 L-51.13949941954311,6.79125228878639 L-51.04048037518777,6.852256548918957 L-50.946671622043525,6.915130911162418 L-50.85822615874292,6.979772829740144 L-50.77528823658966,7.046076876056015 L-50.69799312429003,7.113934910644588 L-50.626466887334594,7.183236259542595 L-50.56082618239003,7.253867894794118 L-50.501178067036335,7.32571461879503 L-50.44761982515992,7.398659252176062 L-50.40023880828709,7.4725828249180415 " />
			<path d="M-64.57815223977029,10.597774342380085 L-64.53077122289746,10.523850769638095 L-64.47721298102104,10.450906136257064 L-64.41756486566734,10.379059412256153 L-64.35192416072277,10.30842777700463 L-64.28039792376735,10.239126428106621 L-64.20310281146772,10.171268393518048 L-64.12016488931445,10.104964347202177 L-64.03171942601385,10.040322428624451 L-63.937910672869606,9.97744806638099 L-63.838891628514276,9.916443806248425 L-63.73482378937409,9.857409143935492 L-63.62587688627425,9.800440362809193 L-63.512228607614134,9.745630376860156 L-63.39406430956409,9.693068579163327 L-63.27157671375627,9.642840696081143 L-63.144965592962784,9.595028647446988 L-63.01443744527361,9.549710412956948 L-62.88020515730578,9.506959904987795 L-62.74248765699316,9.4668468480486 L-62.601509556522984,9.42943666506264 L-62.45750078600165,9.394790370664989 L-62.31069621844715,9.362964471689908 L-62.1613352867198,9.334010875010259 L-62.00966159301603,9.307976802879304 L-61.855922511562156,9.28490471591295 L-61.700368785156094,9.264832243838034 L-61.543254116215046,9.24779212411963 L-61.384834752996206,9.233812148567432 L-61.22536907166522,9.222915118008348 L-61.06511715489417,9.215118805099175 L-60.90434036767628,9.21043592534006 L-60.743300931049184,9.20887411633597 L-60.58226149442209,9.21043592534006 L-60.42148470720419,9.215118805099175 L-60.26123279043314,9.222915118008348 L-60.101767109102155,9.233812148567432 L-59.943347745883315,9.247792124119629 L-59.786233076942274,9.264832243838034 L-59.63067935053621,9.28490471591295 L-59.476940269082334,9.307976802879303 L-59.32526657537857,9.334010875010257 L-59.17590564365121,9.362964471689907 L-59.02910107609671,9.394790370664989 L-58.88509230557538,9.429436665062639 L-58.7441142051052,9.466846848048599 L-58.60639670479258,9.506959904987792 L-58.472164416824754,9.549710412956946 L-58.34163626913558,9.595028647446984 L-58.21502514834209,9.642840696081139 L-58.092537552534274,9.693068579163324 L-57.97437325448423,9.745630376860154 L-57.86072497582411,9.800440362809189 L-57.751778072724264,9.857409143935488 L-57.647710233584085,9.91644380624842 L-57.548691189228755,9.977448066380987 L-57.4548824360845,10.040322428624448 L-57.3664369727839,10.104964347202174 L-57.28349905063064,10.171268393518044 L-57.20620393833101,10.239126428106617 L-57.13467770137558,10.308427777004624 L-57.06903699643101,10.379059412256147 L-57.00938888107732,10.45090613625706 L-56.9558306392009,10.523850769638091 L-56.90844962232807,10.597774342380072 " />
			<path d="M-50.76885267563174,26.436891111010837 L-50.87513700950623,26.381626730449305 L-50.98098470998771,26.31813442206918 " />
			<path d="M-52.24995514930053,24.594977046281883 L-52.282216602105755,24.495535815673385 L-52.3113878422315,24.395856222055645 " />
			<path d="M49.109862216044945,-25.153507810898407 L-50.98098470998771,22.909327694364972 " />
			<path d="M50.76885267563174,-22.32071440197027 L-50.768852675631756,26.436891111010844 " />
			<path d="M-50.768852675631734,26.436891111010837 L-50.768852675631734,24.400731840095816 " />
			<path d="M-51.54519699580947,24.027937418806495 L-50.76885267563174,24.40073184009581 " />
			<path d="M50.768852675631734,-24.3568736728853 L-50.76885267563175,24.40073184009583 " />
			<path d="M49.10986221604493,-25.153507810898418 L50.768852675631734,-24.356873672885314 " />
			<path d="M50.76885267563174,-22.320714401970264 L50.76885267563174,-24.3568736728853 " />
			<path d="M-101.82337649086284,8.32314831288441 L-101.82337649086284,3.213671832860264 " />
			<path d="M-101.82337649086284,3.1698136656497558 L-101.82337649086284,-1.93966281437439 " />
			<path d="M-103.58073580374358,6.28586570697696 L-103.58073580374358,1.1763892269528142 " />
			<path d="M-103.58073580374358,1.1325310597423062 L-103.58073580374358,-3.9769454202818393 " />

       </g>
    </g>
    
</svg>
