solid OpenSCAD_Model
  facet normal 0 0 -1
    outer loop
      vertex -125 150 8
      vertex 130 155 8
      vertex 125 150 8
    endloop
  endfacet
  facet normal -0 0 -1
    outer loop
      vertex 130 155 8
      vertex -125 150 8
      vertex -130 155 8
    endloop
  endfacet
  facet normal 0 1 -0
    outer loop
      vertex 130 155 8
      vertex -130 155 20
      vertex 130 155 20
    endloop
  endfacet
  facet normal 0 1 0
    outer loop
      vertex -130 155 20
      vertex 130 155 8
      vertex -130 155 8
    endloop
  endfacet
  facet normal 0 -0.344886 0.938645
    outer loop
      vertex 130 155 20
      vertex -127.86 152.86 19.2137
      vertex 127.86 152.86 19.2137
    endloop
  endfacet
  facet normal 0 -0.344886 0.938645
    outer loop
      vertex -127.86 152.86 19.2137
      vertex 130 155 20
      vertex -130 155 20
    endloop
  endfacet
  facet normal 0 -0.404524 0.914527
    outer loop
      vertex 127.86 152.86 19.2137
      vertex -125.93 150.93 18.36
      vertex 125.93 150.93 18.36
    endloop
  endfacet
  facet normal 0 -0.404524 0.914527
    outer loop
      vertex -125.93 150.93 18.36
      vertex 127.86 152.86 19.2137
      vertex -127.86 152.86 19.2137
    endloop
  endfacet
  facet normal 0 -0.466003 0.884783
    outer loop
      vertex 125.93 150.93 18.36
      vertex -124.195 149.195 17.4462
      vertex 124.195 149.195 17.4462
    endloop
  endfacet
  facet normal 0 -0.466003 0.884783
    outer loop
      vertex -124.195 149.195 17.4462
      vertex 125.93 150.93 18.36
      vertex -125.93 150.93 18.36
    endloop
  endfacet
  facet normal 0 -0.527768 0.849389
    outer loop
      vertex 124.195 149.195 17.4462
      vertex -122.64 147.64 16.48
      vertex 122.64 147.64 16.48
    endloop
  endfacet
  facet normal 0 -0.527768 0.849389
    outer loop
      vertex -122.64 147.64 16.48
      vertex 124.195 149.195 17.4462
      vertex -124.195 149.195 17.4462
    endloop
  endfacet
  facet normal 0 -0.588282 0.808656
    outer loop
      vertex 122.64 147.64 16.48
      vertex -121.25 146.25 15.4688
      vertex 121.25 146.25 15.4688
    endloop
  endfacet
  facet normal 0 -0.588282 0.808656
    outer loop
      vertex -121.25 146.25 15.4688
      vertex 122.64 147.64 16.48
      vertex -122.64 147.64 16.48
    endloop
  endfacet
  facet normal 0 -0.645788 0.763517
    outer loop
      vertex 121.25 146.25 15.4688
      vertex -120.01 145.01 14.42
      vertex 120.01 145.01 14.42
    endloop
  endfacet
  facet normal 0 -0.645788 0.763517
    outer loop
      vertex -120.01 145.01 14.42
      vertex 121.25 146.25 15.4688
      vertex -121.25 146.25 15.4688
    endloop
  endfacet
  facet normal 0 -0.698573 0.715539
    outer loop
      vertex 120.01 145.01 14.42
      vertex -118.905 143.905 13.3412
      vertex 118.905 143.905 13.3412
    endloop
  endfacet
  facet normal 0 -0.698573 0.715539
    outer loop
      vertex -118.905 143.905 13.3412
      vertex 120.01 145.01 14.42
      vertex -120.01 145.01 14.42
    endloop
  endfacet
  facet normal 0 -0.745337 0.666688
    outer loop
      vertex -117.92 142.92 12.24
      vertex 118.905 143.905 13.3412
      vertex -118.905 143.905 13.3412
    endloop
  endfacet
  facet normal 0 -0.745337 0.666688
    outer loop
      vertex 118.905 143.905 13.3412
      vertex -117.92 142.92 12.24
      vertex 117.92 142.92 12.24
    endloop
  endfacet
  facet normal 0 -0.785324 0.619085
    outer loop
      vertex -117.04 142.04 11.1237
      vertex 117.92 142.92 12.24
      vertex -117.92 142.92 12.24
    endloop
  endfacet
  facet normal 0 -0.785324 0.619085
    outer loop
      vertex 117.92 142.92 12.24
      vertex -117.04 142.04 11.1237
      vertex 117.04 142.04 11.1237
    endloop
  endfacet
  facet normal 0 -0.818064 0.575127
    outer loop
      vertex -116.25 141.25 10
      vertex 117.04 142.04 11.1237
      vertex -117.04 142.04 11.1237
    endloop
  endfacet
  facet normal 0 -0.818064 0.575127
    outer loop
      vertex 117.04 142.04 11.1237
      vertex -116.25 141.25 10
      vertex 116.25 141.25 10
    endloop
  endfacet
  facet normal 0 -0.843702 0.536811
    outer loop
      vertex -115.535 140.535 8.87624
      vertex 116.25 141.25 10
      vertex -116.25 141.25 10
    endloop
  endfacet
  facet normal 0 -0.843702 0.536811
    outer loop
      vertex 116.25 141.25 10
      vertex -115.535 140.535 8.87624
      vertex 115.535 140.535 8.87624
    endloop
  endfacet
  facet normal 0 -0.86248 0.506091
    outer loop
      vertex -114.88 139.88 7.75999
      vertex 115.535 140.535 8.87624
      vertex -115.535 140.535 8.87624
    endloop
  endfacet
  facet normal 0 -0.86248 0.506091
    outer loop
      vertex 115.535 140.535 8.87624
      vertex -114.88 139.88 7.75999
      vertex 114.88 139.88 7.75999
    endloop
  endfacet
  facet normal 0 -0.874765 0.484547
    outer loop
      vertex -114.27 139.27 6.65874
      vertex 114.88 139.88 7.75999
      vertex -114.88 139.88 7.75999
    endloop
  endfacet
  facet normal 0 -0.874765 0.484547
    outer loop
      vertex 114.88 139.88 7.75999
      vertex -114.27 139.27 6.65874
      vertex 114.27 139.27 6.65874
    endloop
  endfacet
  facet normal 0 -0.880766 0.473552
    outer loop
      vertex -113.69 138.69 5.57999
      vertex 114.27 139.27 6.65874
      vertex -114.27 139.27 6.65874
    endloop
  endfacet
  facet normal 0 -0.880766 0.473552
    outer loop
      vertex 114.27 139.27 6.65874
      vertex -113.69 138.69 5.57999
      vertex 113.69 138.69 5.57999
    endloop
  endfacet
  facet normal 0 -0.880368 0.474291
    outer loop
      vertex -113.125 138.125 4.53125
      vertex 113.69 138.69 5.57999
      vertex -113.69 138.69 5.57999
    endloop
  endfacet
  facet normal 0 -0.880368 0.474291
    outer loop
      vertex 113.69 138.69 5.57999
      vertex -113.125 138.125 4.53125
      vertex 113.125 138.125 4.53125
    endloop
  endfacet
  facet normal 0 -0.872986 0.487745
    outer loop
      vertex -112.56 137.56 3.51999
      vertex 113.125 138.125 4.53125
      vertex -113.125 138.125 4.53125
    endloop
  endfacet
  facet normal 0 -0.872986 0.487745
    outer loop
      vertex 113.125 138.125 4.53125
      vertex -112.56 137.56 3.51999
      vertex 112.56 137.56 3.51999
    endloop
  endfacet
  facet normal 0 -0.857395 0.514659
    outer loop
      vertex -111.98 136.98 2.55374
      vertex 112.56 137.56 3.51999
      vertex -112.56 137.56 3.51999
    endloop
  endfacet
  facet normal 0 -0.857395 0.514659
    outer loop
      vertex 112.56 137.56 3.51999
      vertex -111.98 136.98 2.55374
      vertex 111.98 136.98 2.55374
    endloop
  endfacet
  facet normal 0 -0.831697 0.555229
    outer loop
      vertex -111.37 136.37 1.64
      vertex 111.98 136.98 2.55374
      vertex -111.98 136.98 2.55374
    endloop
  endfacet
  facet normal 0 -0.831697 0.555229
    outer loop
      vertex 111.98 136.98 2.55374
      vertex -111.37 136.37 1.64
      vertex 111.37 136.37 1.64
    endloop
  endfacet
  facet normal 0 -0.793404 0.608695
    outer loop
      vertex -110.715 135.715 0.78624
      vertex 111.37 136.37 1.64
      vertex -111.37 136.37 1.64
    endloop
  endfacet
  facet normal 0 -0.793404 0.608695
    outer loop
      vertex 111.37 136.37 1.64
      vertex -110.715 135.715 0.78624
      vertex 110.715 135.715 0.78624
    endloop
  endfacet
  facet normal 0 -0.739829 0.672795
    outer loop
      vertex -110 135 0
      vertex 110.715 135.715 0.78624
      vertex -110.715 135.715 0.78624
    endloop
  endfacet
  facet normal 0 -0.739829 0.672795
    outer loop
      vertex 110.715 135.715 0.78624
      vertex -110 135 0
      vertex 110 135 0
    endloop
  endfacet
  facet normal 0 0 -1
    outer loop
      vertex -110 135 0
      vertex 125 150 0
      vertex 110 135 0
    endloop
  endfacet
  facet normal -0 0 -1
    outer loop
      vertex 125 150 0
      vertex -110 135 0
      vertex -125 150 0
    endloop
  endfacet
  facet normal 0 1 -0
    outer loop
      vertex 125 150 0
      vertex -125 150 8
      vertex 125 150 8
    endloop
  endfacet
  facet normal 0 1 0
    outer loop
      vertex -125 150 8
      vertex 125 150 0
      vertex -125 150 0
    endloop
  endfacet
  facet normal 0 0 -1
    outer loop
      vertex 130 -155 8
      vertex -125 -150 8
      vertex 125 -150 8
    endloop
  endfacet
  facet normal 0 -0 -1
    outer loop
      vertex -125 -150 8
      vertex 130 -155 8
      vertex -130 -155 8
    endloop
  endfacet
  facet normal 0 -1 0
    outer loop
      vertex -130 -155 8
      vertex 130 -155 20
      vertex -130 -155 20
    endloop
  endfacet
  facet normal 0 -1 -0
    outer loop
      vertex 130 -155 20
      vertex -130 -155 8
      vertex 130 -155 8
    endloop
  endfacet
  facet normal -0 0.344886 0.938645
    outer loop
      vertex -127.86 -152.86 19.2137
      vertex 130 -155 20
      vertex 127.86 -152.86 19.2137
    endloop
  endfacet
  facet normal 0 0.344886 0.938645
    outer loop
      vertex 130 -155 20
      vertex -127.86 -152.86 19.2137
      vertex -130 -155 20
    endloop
  endfacet
  facet normal -0 0.404524 0.914527
    outer loop
      vertex -125.93 -150.93 18.36
      vertex 127.86 -152.86 19.2137
      vertex 125.93 -150.93 18.36
    endloop
  endfacet
  facet normal 0 0.404524 0.914527
    outer loop
      vertex 127.86 -152.86 19.2137
      vertex -125.93 -150.93 18.36
      vertex -127.86 -152.86 19.2137
    endloop
  endfacet
  facet normal -0 0.466003 0.884783
    outer loop
      vertex -124.195 -149.195 17.4462
      vertex 125.93 -150.93 18.36
      vertex 124.195 -149.195 17.4462
    endloop
  endfacet
  facet normal 0 0.466003 0.884783
    outer loop
      vertex 125.93 -150.93 18.36
      vertex -124.195 -149.195 17.4462
      vertex -125.93 -150.93 18.36
    endloop
  endfacet
  facet normal -0 0.527768 0.849389
    outer loop
      vertex -122.64 -147.64 16.48
      vertex 124.195 -149.195 17.4462
      vertex 122.64 -147.64 16.48
    endloop
  endfacet
  facet normal 0 0.527768 0.849389
    outer loop
      vertex 124.195 -149.195 17.4462
      vertex -122.64 -147.64 16.48
      vertex -124.195 -149.195 17.4462
    endloop
  endfacet
  facet normal -0 0.588282 0.808656
    outer loop
      vertex -121.25 -146.25 15.4688
      vertex 122.64 -147.64 16.48
      vertex 121.25 -146.25 15.4688
    endloop
  endfacet
  facet normal 0 0.588282 0.808656
    outer loop
      vertex 122.64 -147.64 16.48
      vertex -121.25 -146.25 15.4688
      vertex -122.64 -147.64 16.48
    endloop
  endfacet
  facet normal -0 0.645788 0.763517
    outer loop
      vertex -120.01 -145.01 14.42
      vertex 121.25 -146.25 15.4688
      vertex 120.01 -145.01 14.42
    endloop
  endfacet
  facet normal 0 0.645788 0.763517
    outer loop
      vertex 121.25 -146.25 15.4688
      vertex -120.01 -145.01 14.42
      vertex -121.25 -146.25 15.4688
    endloop
  endfacet
  facet normal -0 0.698573 0.715539
    outer loop
      vertex -118.905 -143.905 13.3412
      vertex 120.01 -145.01 14.42
      vertex 118.905 -143.905 13.3412
    endloop
  endfacet
  facet normal 0 0.698573 0.715539
    outer loop
      vertex 120.01 -145.01 14.42
      vertex -118.905 -143.905 13.3412
      vertex -120.01 -145.01 14.42
    endloop
  endfacet
  facet normal 0 0.745337 0.666688
    outer loop
      vertex 117.92 -142.92 12.24
      vertex -118.905 -143.905 13.3412
      vertex 118.905 -143.905 13.3412
    endloop
  endfacet
  facet normal 0 0.745337 0.666688
    outer loop
      vertex -118.905 -143.905 13.3412
      vertex 117.92 -142.92 12.24
      vertex -117.92 -142.92 12.24
    endloop
  endfacet
  facet normal 0 0.785324 0.619085
    outer loop
      vertex 117.04 -142.04 11.1237
      vertex -117.92 -142.92 12.24
      vertex 117.92 -142.92 12.24
    endloop
  endfacet
  facet normal 0 0.785324 0.619085
    outer loop
      vertex -117.92 -142.92 12.24
      vertex 117.04 -142.04 11.1237
      vertex -117.04 -142.04 11.1237
    endloop
  endfacet
  facet normal 0 0.818064 0.575127
    outer loop
      vertex 116.25 -141.25 10
      vertex -117.04 -142.04 11.1237
      vertex 117.04 -142.04 11.1237
    endloop
  endfacet
  facet normal 0 0.818064 0.575127
    outer loop
      vertex -117.04 -142.04 11.1237
      vertex 116.25 -141.25 10
      vertex -116.25 -141.25 10
    endloop
  endfacet
  facet normal 0 0.843702 0.536811
    outer loop
      vertex 115.535 -140.535 8.87624
      vertex -116.25 -141.25 10
      vertex 116.25 -141.25 10
    endloop
  endfacet
  facet normal 0 0.843702 0.536811
    outer loop
      vertex -116.25 -141.25 10
      vertex 115.535 -140.535 8.87624
      vertex -115.535 -140.535 8.87624
    endloop
  endfacet
  facet normal 0 0.86248 0.506091
    outer loop
      vertex 114.88 -139.88 7.75999
      vertex -115.535 -140.535 8.87624
      vertex 115.535 -140.535 8.87624
    endloop
  endfacet
  facet normal 0 0.86248 0.506091
    outer loop
      vertex -115.535 -140.535 8.87624
      vertex 114.88 -139.88 7.75999
      vertex -114.88 -139.88 7.75999
    endloop
  endfacet
  facet normal 0 0.874765 0.484547
    outer loop
      vertex 114.27 -139.27 6.65874
      vertex -114.88 -139.88 7.75999
      vertex 114.88 -139.88 7.75999
    endloop
  endfacet
  facet normal 0 0.874765 0.484547
    outer loop
      vertex -114.88 -139.88 7.75999
      vertex 114.27 -139.27 6.65874
      vertex -114.27 -139.27 6.65874
    endloop
  endfacet
  facet normal 0 0.880766 0.473552
    outer loop
      vertex 113.69 -138.69 5.57999
      vertex -114.27 -139.27 6.65874
      vertex 114.27 -139.27 6.65874
    endloop
  endfacet
  facet normal 0 0.880766 0.473552
    outer loop
      vertex -114.27 -139.27 6.65874
      vertex 113.69 -138.69 5.57999
      vertex -113.69 -138.69 5.57999
    endloop
  endfacet
  facet normal 0 0.880368 0.474291
    outer loop
      vertex 113.125 -138.125 4.53125
      vertex -113.69 -138.69 5.57999
      vertex 113.69 -138.69 5.57999
    endloop
  endfacet
  facet normal 0 0.880368 0.474291
    outer loop
      vertex -113.69 -138.69 5.57999
      vertex 113.125 -138.125 4.53125
      vertex -113.125 -138.125 4.53125
    endloop
  endfacet
  facet normal 0 0.872986 0.487745
    outer loop
      vertex 112.56 -137.56 3.51999
      vertex -113.125 -138.125 4.53125
      vertex 113.125 -138.125 4.53125
    endloop
  endfacet
  facet normal 0 0.872986 0.487745
    outer loop
      vertex -113.125 -138.125 4.53125
      vertex 112.56 -137.56 3.51999
      vertex -112.56 -137.56 3.51999
    endloop
  endfacet
  facet normal 0 0.857395 0.514659
    outer loop
      vertex 111.98 -136.98 2.55374
      vertex -112.56 -137.56 3.51999
      vertex 112.56 -137.56 3.51999
    endloop
  endfacet
  facet normal 0 0.857395 0.514659
    outer loop
      vertex -112.56 -137.56 3.51999
      vertex 111.98 -136.98 2.55374
      vertex -111.98 -136.98 2.55374
    endloop
  endfacet
  facet normal 0 0.831697 0.555229
    outer loop
      vertex 111.37 -136.37 1.64
      vertex -111.98 -136.98 2.55374
      vertex 111.98 -136.98 2.55374
    endloop
  endfacet
  facet normal 0 0.831697 0.555229
    outer loop
      vertex -111.98 -136.98 2.55374
      vertex 111.37 -136.37 1.64
      vertex -111.37 -136.37 1.64
    endloop
  endfacet
  facet normal 0 0.793404 0.608695
    outer loop
      vertex 110.715 -135.715 0.78624
      vertex -111.37 -136.37 1.64
      vertex 111.37 -136.37 1.64
    endloop
  endfacet
  facet normal 0 0.793404 0.608695
    outer loop
      vertex -111.37 -136.37 1.64
      vertex 110.715 -135.715 0.78624
      vertex -110.715 -135.715 0.78624
    endloop
  endfacet
  facet normal 0 0.739829 0.672795
    outer loop
      vertex 110 -135 0
      vertex -110.715 -135.715 0.78624
      vertex 110.715 -135.715 0.78624
    endloop
  endfacet
  facet normal 0 0.739829 0.672795
    outer loop
      vertex -110.715 -135.715 0.78624
      vertex 110 -135 0
      vertex -110 -135 0
    endloop
  endfacet
  facet normal 0 0 -1
    outer loop
      vertex 125 -150 0
      vertex -110 -135 0
      vertex 110 -135 0
    endloop
  endfacet
  facet normal 0 -0 -1
    outer loop
      vertex -110 -135 0
      vertex 125 -150 0
      vertex -125 -150 0
    endloop
  endfacet
  facet normal 0 -1 0
    outer loop
      vertex -125 -150 0
      vertex 125 -150 8
      vertex -125 -150 8
    endloop
  endfacet
  facet normal 0 -1 -0
    outer loop
      vertex 125 -150 8
      vertex -125 -150 0
      vertex 125 -150 0
    endloop
  endfacet
  facet normal 0 0 -1
    outer loop
      vertex 125 -150 8
      vertex 130 155 8
      vertex 130 -155 8
    endloop
  endfacet
  facet normal 0 0 -1
    outer loop
      vertex 130 155 8
      vertex 125 -150 8
      vertex 125 150 8
    endloop
  endfacet
  facet normal 1 -0 0
    outer loop
      vertex 130 -155 20
      vertex 130 155 8
      vertex 130 155 20
    endloop
  endfacet
  facet normal 1 0 0
    outer loop
      vertex 130 155 8
      vertex 130 -155 20
      vertex 130 -155 8
    endloop
  endfacet
  facet normal -0.344886 0 0.938645
    outer loop
      vertex 127.86 152.86 19.2137
      vertex 130 -155 20
      vertex 130 155 20
    endloop
  endfacet
  facet normal -0.344886 0 0.938645
    outer loop
      vertex 130 -155 20
      vertex 127.86 152.86 19.2137
      vertex 127.86 -152.86 19.2137
    endloop
  endfacet
  facet normal -0.404524 0 0.914527
    outer loop
      vertex 125.93 150.93 18.36
      vertex 127.86 -152.86 19.2137
      vertex 127.86 152.86 19.2137
    endloop
  endfacet
  facet normal -0.404524 0 0.914527
    outer loop
      vertex 127.86 -152.86 19.2137
      vertex 125.93 150.93 18.36
      vertex 125.93 -150.93 18.36
    endloop
  endfacet
  facet normal -0.466003 0 0.884783
    outer loop
      vertex 124.195 149.195 17.4462
      vertex 125.93 -150.93 18.36
      vertex 125.93 150.93 18.36
    endloop
  endfacet
  facet normal -0.466003 0 0.884783
    outer loop
      vertex 125.93 -150.93 18.36
      vertex 124.195 149.195 17.4462
      vertex 124.195 -149.195 17.4462
    endloop
  endfacet
  facet normal -0.527768 0 0.849389
    outer loop
      vertex 122.64 147.64 16.48
      vertex 124.195 -149.195 17.4462
      vertex 124.195 149.195 17.4462
    endloop
  endfacet
  facet normal -0.527768 0 0.849389
    outer loop
      vertex 124.195 -149.195 17.4462
      vertex 122.64 147.64 16.48
      vertex 122.64 -147.64 16.48
    endloop
  endfacet
  facet normal -0.588282 0 0.808656
    outer loop
      vertex 121.25 146.25 15.4688
      vertex 122.64 -147.64 16.48
      vertex 122.64 147.64 16.48
    endloop
  endfacet
  facet normal -0.588282 0 0.808656
    outer loop
      vertex 122.64 -147.64 16.48
      vertex 121.25 146.25 15.4688
      vertex 121.25 -146.25 15.4688
    endloop
  endfacet
  facet normal -0.645788 0 0.763517
    outer loop
      vertex 120.01 145.01 14.42
      vertex 121.25 -146.25 15.4688
      vertex 121.25 146.25 15.4688
    endloop
  endfacet
  facet normal -0.645788 0 0.763517
    outer loop
      vertex 121.25 -146.25 15.4688
      vertex 120.01 145.01 14.42
      vertex 120.01 -145.01 14.42
    endloop
  endfacet
  facet normal -0.698573 0 0.715539
    outer loop
      vertex 118.905 143.905 13.3412
      vertex 120.01 -145.01 14.42
      vertex 120.01 145.01 14.42
    endloop
  endfacet
  facet normal -0.698573 0 0.715539
    outer loop
      vertex 120.01 -145.01 14.42
      vertex 118.905 143.905 13.3412
      vertex 118.905 -143.905 13.3412
    endloop
  endfacet
  facet normal -0.745337 0 0.666688
    outer loop
      vertex 117.92 -142.92 12.24
      vertex 118.905 143.905 13.3412
      vertex 117.92 142.92 12.24
    endloop
  endfacet
  facet normal -0.745337 0 0.666688
    outer loop
      vertex 118.905 143.905 13.3412
      vertex 117.92 -142.92 12.24
      vertex 118.905 -143.905 13.3412
    endloop
  endfacet
  facet normal -0.785324 0 0.619085
    outer loop
      vertex 117.04 -142.04 11.1237
      vertex 117.92 142.92 12.24
      vertex 117.04 142.04 11.1237
    endloop
  endfacet
  facet normal -0.785324 0 0.619085
    outer loop
      vertex 117.92 142.92 12.24
      vertex 117.04 -142.04 11.1237
      vertex 117.92 -142.92 12.24
    endloop
  endfacet
  facet normal -0.818064 0 0.575127
    outer loop
      vertex 116.25 -141.25 10
      vertex 117.04 142.04 11.1237
      vertex 116.25 141.25 10
    endloop
  endfacet
  facet normal -0.818064 0 0.575127
    outer loop
      vertex 117.04 142.04 11.1237
      vertex 116.25 -141.25 10
      vertex 117.04 -142.04 11.1237
    endloop
  endfacet
  facet normal -0.843702 0 0.536811
    outer loop
      vertex 115.535 -140.535 8.87624
      vertex 116.25 141.25 10
      vertex 115.535 140.535 8.87624
    endloop
  endfacet
  facet normal -0.843702 0 0.536811
    outer loop
      vertex 116.25 141.25 10
      vertex 115.535 -140.535 8.87624
      vertex 116.25 -141.25 10
    endloop
  endfacet
  facet normal -0.86248 0 0.506091
    outer loop
      vertex 114.88 -139.88 7.75999
      vertex 115.535 140.535 8.87624
      vertex 114.88 139.88 7.75999
    endloop
  endfacet
  facet normal -0.86248 0 0.506091
    outer loop
      vertex 115.535 140.535 8.87624
      vertex 114.88 -139.88 7.75999
      vertex 115.535 -140.535 8.87624
    endloop
  endfacet
  facet normal -0.874765 0 0.484547
    outer loop
      vertex 114.27 -139.27 6.65874
      vertex 114.88 139.88 7.75999
      vertex 114.27 139.27 6.65874
    endloop
  endfacet
  facet normal -0.874765 0 0.484547
    outer loop
      vertex 114.88 139.88 7.75999
      vertex 114.27 -139.27 6.65874
      vertex 114.88 -139.88 7.75999
    endloop
  endfacet
  facet normal -0.880766 0 0.473552
    outer loop
      vertex 113.69 -138.69 5.57999
      vertex 114.27 139.27 6.65874
      vertex 113.69 138.69 5.57999
    endloop
  endfacet
  facet normal -0.880766 0 0.473552
    outer loop
      vertex 114.27 139.27 6.65874
      vertex 113.69 -138.69 5.57999
      vertex 114.27 -139.27 6.65874
    endloop
  endfacet
  facet normal -0.880368 0 0.474291
    outer loop
      vertex 113.125 -138.125 4.53125
      vertex 113.69 138.69 5.57999
      vertex 113.125 138.125 4.53125
    endloop
  endfacet
  facet normal -0.880368 0 0.474291
    outer loop
      vertex 113.69 138.69 5.57999
      vertex 113.125 -138.125 4.53125
      vertex 113.69 -138.69 5.57999
    endloop
  endfacet
  facet normal -0.872986 0 0.487745
    outer loop
      vertex 112.56 -137.56 3.51999
      vertex 113.125 138.125 4.53125
      vertex 112.56 137.56 3.51999
    endloop
  endfacet
  facet normal -0.872986 0 0.487745
    outer loop
      vertex 113.125 138.125 4.53125
      vertex 112.56 -137.56 3.51999
      vertex 113.125 -138.125 4.53125
    endloop
  endfacet
  facet normal -0.857395 0 0.514659
    outer loop
      vertex 111.98 -136.98 2.55374
      vertex 112.56 137.56 3.51999
      vertex 111.98 136.98 2.55374
    endloop
  endfacet
  facet normal -0.857395 0 0.514659
    outer loop
      vertex 112.56 137.56 3.51999
      vertex 111.98 -136.98 2.55374
      vertex 112.56 -137.56 3.51999
    endloop
  endfacet
  facet normal -0.831697 0 0.555229
    outer loop
      vertex 111.37 -136.37 1.64
      vertex 111.98 136.98 2.55374
      vertex 111.37 136.37 1.64
    endloop
  endfacet
  facet normal -0.831697 0 0.555229
    outer loop
      vertex 111.98 136.98 2.55374
      vertex 111.37 -136.37 1.64
      vertex 111.98 -136.98 2.55374
    endloop
  endfacet
  facet normal -0.793404 0 0.608695
    outer loop
      vertex 110.715 -135.715 0.78624
      vertex 111.37 136.37 1.64
      vertex 110.715 135.715 0.78624
    endloop
  endfacet
  facet normal -0.793404 0 0.608695
    outer loop
      vertex 111.37 136.37 1.64
      vertex 110.715 -135.715 0.78624
      vertex 111.37 -136.37 1.64
    endloop
  endfacet
  facet normal -0.739829 0 0.672795
    outer loop
      vertex 110 -135 0
      vertex 110.715 135.715 0.78624
      vertex 110 135 0
    endloop
  endfacet
  facet normal -0.739829 0 0.672795
    outer loop
      vertex 110.715 135.715 0.78624
      vertex 110 -135 0
      vertex 110.715 -135.715 0.78624
    endloop
  endfacet
  facet normal 0 0 -1
    outer loop
      vertex 110 -135 0
      vertex 125 150 0
      vertex 125 -150 0
    endloop
  endfacet
  facet normal 0 0 -1
    outer loop
      vertex 125 150 0
      vertex 110 -135 0
      vertex 110 135 0
    endloop
  endfacet
  facet normal 1 -0 0
    outer loop
      vertex 125 -150 8
      vertex 125 150 0
      vertex 125 150 8
    endloop
  endfacet
  facet normal 1 0 0
    outer loop
      vertex 125 150 0
      vertex 125 -150 8
      vertex 125 -150 0
    endloop
  endfacet
  facet normal 0 0 -1
    outer loop
      vertex -130 -155 8
      vertex -125 150 8
      vertex -125 -150 8
    endloop
  endfacet
  facet normal -0 0 -1
    outer loop
      vertex -125 150 8
      vertex -130 -155 8
      vertex -130 155 8
    endloop
  endfacet
  facet normal -1 0 0
    outer loop
      vertex -130 -155 8
      vertex -130 155 20
      vertex -130 155 8
    endloop
  endfacet
  facet normal -1 -0 0
    outer loop
      vertex -130 155 20
      vertex -130 -155 8
      vertex -130 -155 20
    endloop
  endfacet
  facet normal 0.344886 0 0.938645
    outer loop
      vertex -130 155 20
      vertex -127.86 -152.86 19.2137
      vertex -127.86 152.86 19.2137
    endloop
  endfacet
  facet normal 0.344886 0 0.938645
    outer loop
      vertex -127.86 -152.86 19.2137
      vertex -130 155 20
      vertex -130 -155 20
    endloop
  endfacet
  facet normal 0.404524 0 0.914527
    outer loop
      vertex -127.86 152.86 19.2137
      vertex -125.93 -150.93 18.36
      vertex -125.93 150.93 18.36
    endloop
  endfacet
  facet normal 0.404524 0 0.914527
    outer loop
      vertex -125.93 -150.93 18.36
      vertex -127.86 152.86 19.2137
      vertex -127.86 -152.86 19.2137
    endloop
  endfacet
  facet normal 0.466003 0 0.884783
    outer loop
      vertex -125.93 150.93 18.36
      vertex -124.195 -149.195 17.4462
      vertex -124.195 149.195 17.4462
    endloop
  endfacet
  facet normal 0.466003 0 0.884783
    outer loop
      vertex -124.195 -149.195 17.4462
      vertex -125.93 150.93 18.36
      vertex -125.93 -150.93 18.36
    endloop
  endfacet
  facet normal 0.527768 0 0.849389
    outer loop
      vertex -124.195 149.195 17.4462
      vertex -122.64 -147.64 16.48
      vertex -122.64 147.64 16.48
    endloop
  endfacet
  facet normal 0.527768 0 0.849389
    outer loop
      vertex -122.64 -147.64 16.48
      vertex -124.195 149.195 17.4462
      vertex -124.195 -149.195 17.4462
    endloop
  endfacet
  facet normal 0.588282 0 0.808656
    outer loop
      vertex -122.64 147.64 16.48
      vertex -121.25 -146.25 15.4688
      vertex -121.25 146.25 15.4688
    endloop
  endfacet
  facet normal 0.588282 0 0.808656
    outer loop
      vertex -121.25 -146.25 15.4688
      vertex -122.64 147.64 16.48
      vertex -122.64 -147.64 16.48
    endloop
  endfacet
  facet normal 0.645788 0 0.763517
    outer loop
      vertex -121.25 146.25 15.4688
      vertex -120.01 -145.01 14.42
      vertex -120.01 145.01 14.42
    endloop
  endfacet
  facet normal 0.645788 0 0.763517
    outer loop
      vertex -120.01 -145.01 14.42
      vertex -121.25 146.25 15.4688
      vertex -121.25 -146.25 15.4688
    endloop
  endfacet
  facet normal 0.698573 0 0.715539
    outer loop
      vertex -120.01 145.01 14.42
      vertex -118.905 -143.905 13.3412
      vertex -118.905 143.905 13.3412
    endloop
  endfacet
  facet normal 0.698573 0 0.715539
    outer loop
      vertex -118.905 -143.905 13.3412
      vertex -120.01 145.01 14.42
      vertex -120.01 -145.01 14.42
    endloop
  endfacet
  facet normal 0.745337 0 0.666688
    outer loop
      vertex -118.905 143.905 13.3412
      vertex -117.92 -142.92 12.24
      vertex -117.92 142.92 12.24
    endloop
  endfacet
  facet normal 0.745337 0 0.666688
    outer loop
      vertex -117.92 -142.92 12.24
      vertex -118.905 143.905 13.3412
      vertex -118.905 -143.905 13.3412
    endloop
  endfacet
  facet normal 0.785324 0 0.619085
    outer loop
      vertex -117.92 142.92 12.24
      vertex -117.04 -142.04 11.1237
      vertex -117.04 142.04 11.1237
    endloop
  endfacet
  facet normal 0.785324 0 0.619085
    outer loop
      vertex -117.04 -142.04 11.1237
      vertex -117.92 142.92 12.24
      vertex -117.92 -142.92 12.24
    endloop
  endfacet
  facet normal 0.818064 0 0.575127
    outer loop
      vertex -117.04 142.04 11.1237
      vertex -116.25 -141.25 10
      vertex -116.25 141.25 10
    endloop
  endfacet
  facet normal 0.818064 0 0.575127
    outer loop
      vertex -116.25 -141.25 10
      vertex -117.04 142.04 11.1237
      vertex -117.04 -142.04 11.1237
    endloop
  endfacet
  facet normal 0.843702 0 0.536811
    outer loop
      vertex -116.25 141.25 10
      vertex -115.535 -140.535 8.87624
      vertex -115.535 140.535 8.87624
    endloop
  endfacet
  facet normal 0.843702 0 0.536811
    outer loop
      vertex -115.535 -140.535 8.87624
      vertex -116.25 141.25 10
      vertex -116.25 -141.25 10
    endloop
  endfacet
  facet normal 0.86248 0 0.506091
    outer loop
      vertex -115.535 140.535 8.87624
      vertex -114.88 -139.88 7.75999
      vertex -114.88 139.88 7.75999
    endloop
  endfacet
  facet normal 0.86248 0 0.506091
    outer loop
      vertex -114.88 -139.88 7.75999
      vertex -115.535 140.535 8.87624
      vertex -115.535 -140.535 8.87624
    endloop
  endfacet
  facet normal 0.874765 0 0.484547
    outer loop
      vertex -114.88 139.88 7.75999
      vertex -114.27 -139.27 6.65874
      vertex -114.27 139.27 6.65874
    endloop
  endfacet
  facet normal 0.874765 0 0.484547
    outer loop
      vertex -114.27 -139.27 6.65874
      vertex -114.88 139.88 7.75999
      vertex -114.88 -139.88 7.75999
    endloop
  endfacet
  facet normal 0.880766 0 0.473552
    outer loop
      vertex -114.27 139.27 6.65874
      vertex -113.69 -138.69 5.57999
      vertex -113.69 138.69 5.57999
    endloop
  endfacet
  facet normal 0.880766 0 0.473552
    outer loop
      vertex -113.69 -138.69 5.57999
      vertex -114.27 139.27 6.65874
      vertex -114.27 -139.27 6.65874
    endloop
  endfacet
  facet normal 0.880368 0 0.474291
    outer loop
      vertex -113.69 138.69 5.57999
      vertex -113.125 -138.125 4.53125
      vertex -113.125 138.125 4.53125
    endloop
  endfacet
  facet normal 0.880368 0 0.474291
    outer loop
      vertex -113.125 -138.125 4.53125
      vertex -113.69 138.69 5.57999
      vertex -113.69 -138.69 5.57999
    endloop
  endfacet
  facet normal 0.872986 0 0.487745
    outer loop
      vertex -113.125 138.125 4.53125
      vertex -112.56 -137.56 3.51999
      vertex -112.56 137.56 3.51999
    endloop
  endfacet
  facet normal 0.872986 0 0.487745
    outer loop
      vertex -112.56 -137.56 3.51999
      vertex -113.125 138.125 4.53125
      vertex -113.125 -138.125 4.53125
    endloop
  endfacet
  facet normal 0.857395 0 0.514659
    outer loop
      vertex -112.56 137.56 3.51999
      vertex -111.98 -136.98 2.55374
      vertex -111.98 136.98 2.55374
    endloop
  endfacet
  facet normal 0.857395 0 0.514659
    outer loop
      vertex -111.98 -136.98 2.55374
      vertex -112.56 137.56 3.51999
      vertex -112.56 -137.56 3.51999
    endloop
  endfacet
  facet normal 0.831697 0 0.555229
    outer loop
      vertex -111.98 136.98 2.55374
      vertex -111.37 -136.37 1.64
      vertex -111.37 136.37 1.64
    endloop
  endfacet
  facet normal 0.831697 0 0.555229
    outer loop
      vertex -111.37 -136.37 1.64
      vertex -111.98 136.98 2.55374
      vertex -111.98 -136.98 2.55374
    endloop
  endfacet
  facet normal 0.793404 0 0.608695
    outer loop
      vertex -111.37 136.37 1.64
      vertex -110.715 -135.715 0.78624
      vertex -110.715 135.715 0.78624
    endloop
  endfacet
  facet normal 0.793404 0 0.608695
    outer loop
      vertex -110.715 -135.715 0.78624
      vertex -111.37 136.37 1.64
      vertex -111.37 -136.37 1.64
    endloop
  endfacet
  facet normal 0.739829 0 0.672795
    outer loop
      vertex -110.715 135.715 0.78624
      vertex -110 -135 0
      vertex -110 135 0
    endloop
  endfacet
  facet normal 0.739829 0 0.672795
    outer loop
      vertex -110 -135 0
      vertex -110.715 135.715 0.78624
      vertex -110.715 -135.715 0.78624
    endloop
  endfacet
  facet normal 0 0 -1
    outer loop
      vertex -125 -150 0
      vertex -110 135 0
      vertex -110 -135 0
    endloop
  endfacet
  facet normal -0 0 -1
    outer loop
      vertex -110 135 0
      vertex -125 -150 0
      vertex -125 150 0
    endloop
  endfacet
  facet normal -1 0 0
    outer loop
      vertex -125 -150 0
      vertex -125 150 8
      vertex -125 150 0
    endloop
  endfacet
  facet normal -1 -0 0
    outer loop
      vertex -125 150 8
      vertex -125 -150 0
      vertex -125 -150 8
    endloop
  endfacet
endsolid OpenSCAD_Model
